<?xml version="1.0" encoding="utf-8"?>
<!-- Generator: Adobe Illustrator 15.0.0, SVG Export Plug-In . SVG Version: 6.00 Build 0)  -->
<!DOCTYPE svg PUBLIC "-//W3C//DTD SVG 1.1//EN" "http://www.w3.org/Graphics/SVG/1.1/DTD/svg11.dtd">
<svg version="1.1" id="Слой_1" xmlns="http://www.w3.org/2000/svg" xmlns:xlink="http://www.w3.org/1999/xlink" x="0px" y="0px"
	 width="1920px" height="1080px" viewBox="0 0 1920 1080" enable-background="new 0 0 1920 1080" xml:space="preserve">
<rect y="-1" fill="#DBEDFF" width="1921" height="1086"/>
<g>
	<g>
		<g>
			<g>
				<path fill="#A8E0FF" d="M1558.814,747.716l-6.568-5.37l1.096-1.339l1.371-1.677l1.631-1.996
					c1.121-1.369,0.916-3.396-0.453-4.517l-8.103-6.623c-1.371-1.12-3.397-0.917-4.519,0.452l-1.633,1.996l-1.369,1.677l-1.096,1.34
					l-6.565-5.368c-2.163-1.768-5.362-1.447-7.13,0.716l-30.336,37.109c-1.768,2.163-1.447,5.362,0.717,7.131l2.072,1.694
					l-1.302,1.592c-0.819,1.004-0.669,2.487,0.334,3.308c1.004,0.821,2.488,0.673,3.307-0.331l1.302-1.592l14.781,12.083
					l-1.301,1.592c-0.819,1.003-0.67,2.487,0.335,3.308c1.007,0.824,2.49,0.674,3.309-0.329l1.302-1.592l2.073,1.694
					c2.163,1.768,5.36,1.449,7.131-0.717l30.335-37.108C1561.296,752.682,1560.979,749.483,1558.814,747.716z M1546.742,727.473
					l8.104,6.624c0.658,0.538,0.76,1.511,0.231,2.174c-0.206-0.479-0.517-0.929-0.956-1.288l-8.104-6.623
					c-0.439-0.36-0.942-0.577-1.454-0.684C1545.11,727.026,1546.082,726.934,1546.742,727.473z M1541.547,731.363l1.369-1.676
					c0.461-0.563,1.4-0.586,2.057-0.049l8.104,6.623c0.655,0.535,0.817,1.461,0.357,2.023l-1.369,1.677l-1.097,1.339l-10.517-8.598
					L1541.547,731.363z M1498.994,776.461c-0.246,0.302-0.689,0.346-0.986,0.102c-0.301-0.245-0.348-0.688-0.101-0.988l1.302-1.59
					l1.082,0.885L1498.994,776.461L1498.994,776.461z M1517.414,791.52c-0.245,0.302-0.687,0.347-0.986,0.102
					c-0.302-0.246-0.347-0.689-0.101-0.99l1.3-1.59l1.082,0.885l-1.299,1.591L1517.414,791.52L1517.414,791.52z M1527.916,790.908
					c-1.19,1.457-3.352,1.672-4.807,0.482l-26.207-21.422c-1.458-1.192-1.675-3.35-0.484-4.808l30.336-37.108
					c1.192-1.459,3.35-1.674,4.807-0.482l26.209,21.424c1.457,1.191,1.676,3.349,0.483,4.807l-30.335,37.109L1527.916,790.908
					L1527.916,790.908z"/>
			</g>
		</g>
		<path fill="#A8E0FF" d="M1527.532,786.835c-1.301,1.591-3.772,1.72-5.522,0.288l-20.977-17.146
			c-1.751-1.432-2.116-3.879-0.814-5.469l23.64-28.921c1.3-1.59,3.772-1.719,5.521-0.288l20.979,17.146
			c1.749,1.432,2.114,3.88,0.814,5.471L1527.532,786.835z M1550.423,756.895c0.761-0.93,0.493-2.407-0.599-3.299l-21.228-17.354
			c-1.091-0.891-2.59-0.859-3.353,0.07l-23.652,28.936c-0.759,0.93-0.492,2.406,0.599,3.297l21.229,17.354
			c1.091,0.892,2.592,0.86,3.352-0.069L1550.423,756.895z"/>
		<path fill="#A8E0FF" d="M1538.447,751.031l-5.527-4.519c-0.577-0.471-0.644-1.348-0.172-1.923
			c0.471-0.578,1.343-0.686,1.919-0.215l5.528,4.518c0.576,0.473,0.643,1.348,0.172,1.925
			C1539.896,751.393,1539.023,751.502,1538.447,751.031z M1533.891,745.325c-0.165-0.134-0.262-0.29-0.396-0.124
			c-0.134,0.164,0.037,0.227,0.202,0.361l5.527,4.518c0.165,0.136,0.261,0.291,0.396,0.126c0.136-0.165-0.036-0.228-0.201-0.361
			L1533.891,745.325z"/>
	</g>
	<g>
		<line fill="#A8E0FF" x1="1516.678" y1="750.671" x2="1538.293" y2="768.341"/>
		<path fill="#A8E0FF" d="M1516.291,751.146c0,0,8.18,6.688,12.324,10.074c3.049,2.492,6.202,5.07,9.289,7.594
			c0.476,0.389,1.252-0.561,0.778-0.949c-4.276-3.496-8.433-6.895-12.577-10.281c-3.05-2.492-6.188-5.059-9.038-7.389
			C1516.592,749.808,1515.815,750.758,1516.291,751.146C1516.291,751.146,1515.815,750.758,1516.291,751.146z"/>
	</g>
</g>
<g>
	<path fill="#A8E0FF" d="M1791.128,1046.553c4.8,4.929,4.12,13.377-1.519,18.867l-38.415,37.41
		c-5.639,5.49-14.101,5.946-18.902,1.017l-14.155-14.537c-4.801-4.929-4.121-13.376,1.518-18.867l38.417-37.411
		c5.638-5.49,14.1-5.945,18.901-1.016L1791.128,1046.553z M1775.574,1033.264c-4.15-4.263-11.546-3.793-16.518,1.048l-38.342,37.337
		c-4.971,4.842-5.637,12.221-1.485,16.483l14.083,14.462c4.15,4.263,11.545,3.793,16.518-1.049l38.34-37.336
		c4.973-4.842,5.637-12.222,1.486-16.484L1775.574,1033.264z"/>
	<g>
		<path fill="#A8E0FF" d="M1752.22,1039.99c-0.03-0.026-3.06-2.636-7.502-3.719c-5.851-1.425-11.364,0.293-16.351,5.149
			l-0.209,0.204c-4.986,4.855-6.852,10.32-5.584,16.205c0.963,4.469,3.48,7.554,3.506,7.584l-1.42,1.223
			c-0.111-0.135-2.736-3.342-3.794-8.172c-0.987-4.514-0.71-11.289,6.173-17.99l0.209-0.203c6.883-6.703,13.666-6.797,18.152-5.688
			c4.803,1.188,7.946,3.904,8.078,4.02L1752.22,1039.99z"/>
	</g>
	<path fill="#A8E0FF" d="M1775.416,1045.371c1.104,1.135,1.08,2.949-0.055,4.054l-39.587,38.551
		c-1.136,1.105-2.95,1.081-4.054-0.054l-12.424-12.758c-1.104-1.134-1.08-2.949,0.054-4.053l39.588-38.551
		c1.135-1.105,2.95-1.081,4.055,0.053L1775.416,1045.371z M1761.973,1033.867c-0.455-0.468-1.202-0.477-1.67-0.022l-39.512,38.478
		c-0.467,0.455-0.477,1.202-0.023,1.67l12.537,12.873c0.455,0.467,1.201,0.478,1.669,0.022l39.513-38.478
		c0.467-0.455,0.478-1.202,0.022-1.67L1761.973,1033.867z"/>
	<path fill="#A8E0FF" d="M1760.528,1066.893c1.021,1.048,0.929,2.793-0.206,3.898l-2.982,2.905
		c-1.134,1.104-2.882,1.149-3.902,0.101l-0.408-0.418c-1.021-1.05-0.93-2.795,0.205-3.898l2.983-2.906
		c1.134-1.105,2.882-1.15,3.903-0.102L1760.528,1066.893z M1758.721,1067.721c-0.371-0.381-1.05-0.321-1.517,0.133l-2.909,2.832
		c-0.467,0.455-0.543,1.133-0.172,1.515l0.334,0.345c0.371,0.381,1.051,0.32,1.518-0.134l2.909-2.832
		c0.466-0.455,0.544-1.132,0.173-1.514L1758.721,1067.721z"/>
</g>
<text transform="matrix(1 0 0 1 643.5649 782.6035)" fill="#4D4D4D" font-family="'HelveticaNeueCyr-Light'" font-size="21.5643"> </text>
<g opacity="0.9">
	<g>
		<g>
			<g>
				<path fill="#294A8F" d="M1750.124,730.514l-18.116,8.389l-1.71-3.695l-2.14-4.625l-2.551-5.504
					c-1.748-3.779-6.251-5.43-10.027-3.682l-22.348,10.348c-3.781,1.751-5.434,6.252-3.686,10.031l2.549,5.504l2.142,4.624
					l1.712,3.696l-18.112,8.385c-5.964,2.762-8.572,9.865-5.811,15.832l47.392,102.35c2.762,5.967,9.867,8.574,15.832,5.812
					l5.716-2.647l2.033,4.391c1.28,2.768,4.578,3.975,7.345,2.693c2.771-1.283,3.98-4.576,2.698-7.342l-2.032-4.393l40.768-18.877
					l2.032,4.392c1.282,2.767,4.578,3.974,7.351,2.69c2.773-1.283,3.983-4.578,2.702-7.345l-2.034-4.391l5.717-2.647
					c5.965-2.762,8.577-9.858,5.811-15.831l-47.391-102.351C1763.186,730.363,1756.09,727.752,1750.124,730.514z M1694.865,735.272
					l22.348-10.349c1.815-0.841,3.978-0.059,4.842,1.742c-1.228-0.059-2.497,0.141-3.711,0.702l-22.348,10.348
					c-1.213,0.562-2.19,1.403-2.939,2.378C1692.242,738.27,1693.046,736.114,1694.865,735.272z M1697.764,750.271l-2.141-4.623
					c-0.719-1.552,0.199-3.568,2.007-4.405l22.348-10.348c1.808-0.837,3.935-0.23,4.652,1.322l2.143,4.622l1.71,3.695
					l-29.008,13.433L1697.764,750.271z M1749.513,886.695c0.384,0.83,0.022,1.812-0.802,2.193c-0.826,0.382-1.809,0.023-2.194-0.807
					l-2.03-4.387l2.99-1.385L1749.513,886.695L1749.513,886.695z M1800.318,863.17c0.386,0.83,0.027,1.811-0.8,2.193
					c-0.831,0.384-1.814,0.025-2.199-0.804l-2.03-4.386l2.986-1.384l2.031,4.386L1800.318,863.17L1800.318,863.17z
					 M1809.815,840.309c1.862,4.021,0.095,8.814-3.921,10.674l-72.277,33.468c-4.021,1.861-8.812,0.104-10.674-3.915
					l-47.391-102.352c-1.862-4.021-0.103-8.811,3.917-10.672l72.288-33.471c4.02-1.861,8.81-0.105,10.671,3.916l47.392,102.351
					L1809.815,840.309L1809.815,840.309z"/>
			</g>
		</g>
		<path fill="#294A8F" d="M1800.797,836.938c2.032,4.387-0.234,9.753-5.063,11.988l-57.855,26.789
			c-4.829,2.236-10.388,0.492-12.416-3.895l-36.936-79.764c-2.028-4.386,0.236-9.751,5.064-11.987l57.856-26.79
			c4.828-2.234,10.386-0.491,12.418,3.895L1800.797,836.938z M1760.932,757.713c-1.187-2.566-4.587-3.518-7.596-2.125
			l-58.553,27.111c-3.006,1.393-4.48,4.6-3.293,7.166l36.951,79.805c1.189,2.566,4.589,3.516,7.596,2.124l58.554-27.112
			c3.006-1.391,4.481-4.6,3.294-7.166L1760.932,757.713z"/>
		<path fill="#294A8F" d="M1736.215,777.039l-15.246,7.061c-1.589,0.736-3.513-0.021-4.249-1.613
			c-0.735-1.59-0.071-3.547,1.52-4.283l15.245-7.06c1.592-0.736,3.514,0.024,4.25,1.612
			C1738.469,774.348,1737.806,776.305,1736.215,777.039z M1719.453,780.823c-0.455,0.211-0.883,0.257-0.672,0.71
			c0.211,0.454,0.521,0.156,0.975-0.055l15.245-7.059c0.455-0.211,0.883-0.254,0.672-0.709c-0.21-0.455-0.521-0.156-0.974,0.054
			L1719.453,780.823z"/>
	</g>
	<g>
		<line fill="#294A8F" x1="1713.084" y1="822.756" x2="1772.7" y2="795.151"/>
		<path fill="#294A8F" d="M1713.691,824.064c0,0,22.563-10.447,33.995-15.74c8.406-3.893,17.104-7.919,25.619-11.861
			c1.31-0.607,0.098-3.229-1.213-2.621c-11.792,5.459-23.258,10.768-34.687,16.06c-8.408,3.894-17.067,7.903-24.93,11.543
			C1711.168,822.051,1712.381,824.673,1713.691,824.064C1713.691,824.064,1712.381,824.673,1713.691,824.064z"/>
	</g>
</g>
<g opacity="0.43">
	<path fill="#294A8F" d="M1866.679,1058.652c0.634,1.183,3.957-0.365,4.786-0.593c3.4-0.935,6.802-1.87,10.201-2.806
		c9.048-2.489,18.094-4.978,27.142-7.467c5.532-1.521,11.063-3.043,16.597-4.564c1.405-0.387-0.891-7.798-1.164-8.789
		c-8.039-29.229-16.079-58.456-24.119-87.684c-0.456-1.661-9.465,2.281-10.693,2.619c-8.813,2.424-17.625,4.849-26.438,7.272
		c-6.86,1.888-13.72,3.774-20.581,5.661c-0.821,0.227-2.21-0.232-1.912,0.849c0.425,1.543,0.849,3.085,1.272,4.628
		c8.196,29.795,16.393,59.591,24.588,89.385c0.168,0.609,0.348,1.262,0.589,2.139c0.24,0.877-2.39,1.601-2.631,0.724
		c-7.718-28.059-15.533-56.471-23.257-84.549c-1.092-3.969-2.184-7.938-3.275-11.906c-1.257-4.569,6.281-4.554,9.162-5.345
		c16.065-4.42,32.133-8.84,48.199-13.26c1.233-0.339,3.459-1.701,4.782-1.333c2,0.555,2.576,1.489,3.055,3.23
		c1.405,5.105,2.81,10.211,4.214,15.315c4.861,17.674,9.723,35.349,14.585,53.023c1.896,6.893,3.792,13.785,5.688,20.679
		c0.776,2.822,3.272,8.702-1.17,9.924c-13.967,3.842-27.935,7.684-41.901,11.525c-4.267,1.175-8.533,2.348-12.8,3.521
		c-2.561,0.704-5.811,2.273-7.453-0.79C1863.254,1058.404,1865.788,1056.992,1866.679,1058.652z"/>
	<path fill="#294A8F" d="M1888.399,948.709c0,0,15.303,55.633,22.96,83.471c1.295,4.707,2.606,9.473,3.813,13.857
		c0.482,1.754-2.148,2.478-2.631,0.724c-7.478-27.182-15.242-55.409-22.899-83.246c-1.294-4.709-2.426-8.821-3.872-14.081
		C1885.286,947.68,1887.916,946.956,1888.399,948.709C1888.399,948.709,1887.916,946.956,1888.399,948.709z"/>
	<path fill="#294A8F" d="M1852.449,958.598c0,0,15.273,55.529,22.939,83.396c1.199,4.356,2.386,8.671,3.592,13.055
		c0.482,1.754-2.148,2.478-2.631,0.725c-7.718-28.059-15.328-55.723-22.993-83.59c-1.198-4.356-2.332-8.478-3.538-12.861
		C1849.336,957.568,1851.967,956.845,1852.449,958.598C1852.449,958.598,1851.967,956.845,1852.449,958.598z"/>
	<path fill="#294A8F" d="M1875.771,937.092c0,0,2.412,8.769,3.617,13.152c0.483,1.754-2.146,2.478-2.629,0.725
		c-1.206-4.385-2.654-9.646-3.618-13.152C1872.418,935.186,1875.048,934.461,1875.771,937.092
		C1875.771,937.092,1875.048,934.461,1875.771,937.092z"/>
	<path fill="#294A8F" d="M1857.358,942.157c0,0,2.412,8.769,3.376,12.275c0.482,1.753-2.147,2.478-2.63,0.724
		c-0.965-3.508-2.412-8.769-3.377-12.275C1854.004,940.25,1856.635,939.526,1857.358,942.157
		C1857.358,942.157,1856.635,939.526,1857.358,942.157z"/>
	<g>
		<path fill="#294A8F" d="M1909.526,1046.087c-0.055-0.197-0.488-0.249-0.968-0.117l-24.565,6.757
			c-0.479,0.133-0.826,0.398-0.772,0.596l1.493,5.426c0.054,0.197,0.487,0.249,0.968,0.117l24.564-6.758
			c0.48-0.132,0.826-0.398,0.772-0.596L1909.526,1046.087z"/>
		<path fill="#294A8F" d="M1910.064,1051.472c0.097,0.353-0.34,0.78-0.977,0.955l-24.001,6.602
			c-0.637,0.175-1.231,0.031-1.327-0.321l-1.578-5.738c-0.098-0.353,0.339-0.779,0.977-0.955l23.999-6.602
			c0.637-0.176,1.231-0.031,1.329,0.32L1910.064,1051.472z M1908.586,1046.096c-0.02-0.068-0.299-0.051-0.623,0.038l-24.252,6.671
			c-0.324,0.089-0.572,0.217-0.554,0.285l1.62,5.891c0.02,0.068,0.298,0.051,0.622-0.038l24.252-6.671
			c0.325-0.09,0.573-0.218,0.554-0.286L1908.586,1046.096z"/>
	</g>
	<g>
		<path fill="#294A8F" d="M1919.018,1046.306c-0.054-0.197-0.16-0.339-0.238-0.317l-4.103,1.128
			c-0.077,0.021-0.097,0.198-0.044,0.396l1.493,5.425c0.055,0.196,0.161,0.339,0.239,0.317l4.102-1.128
			c0.078-0.022,0.098-0.198,0.044-0.396L1919.018,1046.306z"/>
		<path fill="#294A8F" d="M1920.433,1051.449c0.097,0.352-0.014,0.689-0.247,0.754l-4.416,1.215
			c-0.232,0.064-0.501-0.17-0.598-0.522l-1.578-5.737c-0.098-0.353,0.013-0.691,0.248-0.755l4.414-1.215
			c0.233-0.064,0.502,0.17,0.599,0.522L1920.433,1051.449z M1918.94,1046.023c-0.012-0.041-0.022-0.074-0.024-0.073l-4.376,1.204
			c-0.003,0,0.005,0.034,0.017,0.076l1.646,5.987c0.012,0.042,0.022,0.075,0.025,0.073l4.375-1.203c0.003,0-0.004-0.034-0.016-0.076
			L1918.94,1046.023z"/>
	</g>
	<g>
		<path fill="#294A8F" d="M1877.808,1057.642c-0.055-0.196-0.162-0.339-0.241-0.317l-4.1,1.128
			c-0.078,0.021-0.098,0.198-0.044,0.396l1.492,5.424c0.054,0.197,0.161,0.34,0.24,0.318l4.101-1.128
			c0.078-0.021,0.098-0.198,0.043-0.396L1877.808,1057.642z"/>
		<path fill="#294A8F" d="M1879.222,1062.785c0.097,0.352-0.014,0.689-0.248,0.754l-4.413,1.215c-0.233,0.064-0.503-0.17-0.6-0.522
			l-1.579-5.737c-0.096-0.354,0.016-0.691,0.249-0.755l4.414-1.214c0.233-0.064,0.501,0.169,0.598,0.521L1879.222,1062.785z
			 M1877.73,1057.36c-0.012-0.042-0.023-0.075-0.025-0.074l-4.376,1.204c-0.002,0,0.005,0.034,0.017,0.076l1.647,5.988
			c0.011,0.041,0.022,0.074,0.024,0.073l4.376-1.204c0.003,0-0.005-0.034-0.017-0.076L1877.73,1057.36z"/>
	</g>
	<path fill="#294A8F" d="M1869.349,968.551c0.771,1.813,3.467,0.459,4.84,0.082c1.358-0.373,4.126-0.559,3.207-2.719
		c-0.534-1.256-3.775,0.292-4.604,0.52c-1.227,0.338-3.775,0.812-3.293,2.566c0.241,0.876-1.168,1.264-1.408,0.387
		c-0.965-3.508,1.804-3.671,3.949-4.262c2.197-0.604,5.587-2.345,6.83,0.576c1.24,2.918-1.853,3.705-3.92,4.274
		c-2.197,0.604-5.61,2.261-6.852-0.66C1867.734,968.461,1868.98,967.688,1869.349,968.551z"/>
	<path fill="#294A8F" d="M1876.019,937.066c0.116,0.372-0.233-0.251-0.979-0.506c-2.815-0.967-6.327,0.096-9.055,0.825
		c-3.766,1.009-9.977,1.794-10.734,6.46c-0.301,1.859-3.122,1.094-2.823-0.752c1.044-6.436,9.429-7.729,14.642-9.002
		c2.969-0.725,10.438-2.127,11.769,2.199C1879.391,938.094,1876.572,938.863,1876.019,937.066L1876.019,937.066z"/>
</g>
<g opacity="0.75">
	<path fill="#294A8F" d="M1659.847,1025.727c-4.709,11.469-19.162,16.399-32.28,11.014l-89.379-36.703
		c-13.118-5.387-19.936-19.051-15.226-30.52l13.888-33.821c4.709-11.469,19.162-16.399,32.28-11.013l89.381,36.703
		c13.116,5.386,19.934,19.051,15.224,30.52L1659.847,1025.727z M1670.669,990.489c4.073-9.917-2.003-21.806-13.567-26.556
		l-89.205-36.631c-11.566-4.748-24.244-0.56-28.316,9.356l-13.815,33.646c-4.073,9.917,2.003,21.806,13.569,26.556l89.203,36.629
		c11.566,4.75,24.244,0.561,28.316-9.355L1670.669,990.489z"/>
	<g>
		<path fill="#294A8F" d="M1642.813,956.699c0.021-0.068,2.165-6.945,0.771-15.067c-1.837-10.692-8.629-18.577-20.23-23.341
			l-0.486-0.199c-11.601-4.764-21.974-3.932-30.793,2.381c-6.699,4.797-9.994,11.168-10.027,11.231l-3.039-1.471
			c0.144-0.281,3.564-6.919,10.793-12.13c6.752-4.867,18.152-9.264,34.165-2.688l0.487,0.199
			c16.014,6.576,21.029,17.725,22.411,25.936c1.479,8.791-0.761,15.936-0.856,16.236L1642.813,956.699z"/>
	</g>
	<path fill="#294A8F" d="M1650.539,998.904c-1.084,2.639-4.101,3.899-6.74,2.815l-92.104-37.821c-2.64-1.083-3.9-4.101-2.816-6.739
		l12.188-29.681c1.085-2.64,4.102-3.9,6.74-2.816l92.104,37.82c2.64,1.084,3.9,4.102,2.817,6.74L1650.539,998.904z
		 M1659.925,968.436c0.446-1.088-0.072-2.33-1.159-2.775l-91.93-37.75c-1.088-0.445-2.329,0.073-2.774,1.16l-12.3,29.951
		c-0.446,1.087,0.072,2.33,1.159,2.775l91.929,37.749c1.088,0.446,2.33-0.072,2.776-1.159L1659.925,968.436z"/>
	<path fill="#294A8F" d="M1604.291,989.715c-1.002,2.439-3.953,3.538-6.592,2.455l-6.942-2.852
		c-2.638-1.083-3.964-3.939-2.964-6.379l0.401-0.975c1.002-2.439,3.953-3.539,6.591-2.455l6.942,2.85
		c2.64,1.084,3.966,3.94,2.964,6.38L1604.291,989.715z M1601.626,987.322c0.364-0.888-0.222-1.969-1.308-2.415l-6.766-2.778
		c-1.087-0.446-2.264-0.089-2.628,0.799l-0.329,0.8c-0.364,0.888,0.222,1.968,1.309,2.415l6.766,2.778
		c1.087,0.446,2.263,0.089,2.628-0.799L1601.626,987.322z"/>
</g>
<g>
	<g>
		<g>
			<g>
				<path fill="#A8E0FF" d="M1716.467,301.511l-6.305,2.919l-0.594-1.286l-0.745-1.609l-0.888-1.915
					c-0.607-1.314-2.176-1.89-3.489-1.281l-7.776,3.601c-1.316,0.609-1.891,2.176-1.283,3.491l0.887,1.915l0.746,1.608l0.596,1.287
					l-6.303,2.917c-2.075,0.962-2.982,3.433-2.021,5.509l16.49,35.616c0.961,2.076,3.434,2.983,5.51,2.022l1.988-0.922l0.709,1.528
					c0.444,0.963,1.592,1.383,2.555,0.937c0.964-0.445,1.385-1.592,0.939-2.555l-0.707-1.527l14.186-6.569l0.708,1.528
					c0.445,0.963,1.593,1.383,2.558,0.936c0.965-0.446,1.386-1.593,0.939-2.555l-0.707-1.528l1.989-0.921
					c2.075-0.962,2.985-3.432,2.021-5.51l-16.491-35.615C1721.012,301.458,1718.543,300.549,1716.467,301.511z M1697.238,303.166
					l7.775-3.602c0.633-0.291,1.385-0.02,1.686,0.607c-0.428-0.021-0.869,0.049-1.291,0.244l-7.776,3.601
					c-0.422,0.196-0.763,0.488-1.022,0.827C1696.326,304.209,1696.604,303.459,1697.238,303.166z M1698.246,308.385l-0.744-1.608
					c-0.251-0.54,0.068-1.241,0.697-1.532l7.777-3.602c0.629-0.291,1.369-0.08,1.619,0.461l0.745,1.607l0.595,1.287l-10.094,4.674
					L1698.246,308.385z M1716.254,355.858c0.134,0.288,0.008,0.63-0.279,0.763s-0.629,0.008-0.764-0.28l-0.706-1.526l1.041-0.482
					L1716.254,355.858L1716.254,355.858z M1733.934,347.672c0.134,0.289,0.01,0.631-0.279,0.764s-0.631,0.009-0.764-0.28
					l-0.707-1.526l1.039-0.48l0.707,1.525L1733.934,347.672L1733.934,347.672z M1737.238,339.717
					c0.648,1.398,0.033,3.066-1.365,3.715l-25.15,11.645c-1.398,0.648-3.066,0.037-3.715-1.361l-16.49-35.616
					c-0.647-1.399-0.035-3.065,1.363-3.714l25.154-11.646c1.398-0.648,3.065-0.037,3.713,1.362l16.492,35.616H1737.238
					L1737.238,339.717z"/>
			</g>
		</g>
		<path fill="#A8E0FF" d="M1734.1,338.544c0.708,1.526-0.082,3.394-1.762,4.171l-20.133,9.322c-1.68,0.778-3.613,0.172-4.319-1.355
			l-12.854-27.756c-0.706-1.525,0.083-3.393,1.763-4.171l20.133-9.322c1.68-0.778,3.613-0.171,4.32,1.354L1734.1,338.544z
			 M1720.228,310.975c-0.413-0.893-1.597-1.224-2.644-0.738l-20.374,9.434c-1.046,0.484-1.56,1.601-1.147,2.494l12.859,27.77
			c0.414,0.893,1.596,1.224,2.643,0.739l20.375-9.435c1.047-0.484,1.561-1.601,1.146-2.493L1720.228,310.975z"/>
		<path fill="#A8E0FF" d="M1711.627,317.7l-5.305,2.457c-0.554,0.256-1.223-0.008-1.479-0.562c-0.256-0.553-0.024-1.234,0.528-1.49
			l5.306-2.457c0.554-0.256,1.222,0.009,1.479,0.562C1712.41,316.764,1712.18,317.444,1711.627,317.7z M1705.795,319.018
			c-0.158,0.072-0.309,0.088-0.234,0.246c0.073,0.158,0.181,0.055,0.339-0.019l5.306-2.456c0.157-0.073,0.307-0.088,0.232-0.247
			c-0.072-0.158-0.181-0.054-0.338,0.019L1705.795,319.018z"/>
	</g>
	<g>
		<line fill="#A8E0FF" x1="1703.578" y1="333.608" x2="1724.323" y2="324.003"/>
		<path fill="#A8E0FF" d="M1703.789,334.064c0,0,7.852-3.636,11.83-5.478c2.924-1.354,5.951-2.756,8.914-4.128
			c0.456-0.211,0.035-1.123-0.422-0.912c-4.104,1.9-8.093,3.747-12.07,5.589c-2.926,1.354-5.939,2.75-8.675,4.017
			C1702.911,333.363,1703.333,334.275,1703.789,334.064C1703.789,334.064,1703.333,334.275,1703.789,334.064z"/>
	</g>
</g>
<g>
	<path fill="#A8E0FF" d="M1526.037,420.568c-0.521,0.545,0.889,2.051,1.154,2.455c1.095,1.655,2.189,3.311,3.285,4.965
		c2.914,4.404,5.828,8.807,8.742,13.21c1.781,2.691,3.563,5.384,5.344,8.076c0.453,0.685,4.015-1.84,4.498-2.16
		c14.224-9.412,28.449-18.824,42.673-28.237c0.809-0.535-2.875-4.662-3.271-5.261c-2.838-4.288-5.677-8.577-8.515-12.866
		c-2.209-3.34-4.418-6.678-6.627-10.018c-0.266-0.399-0.263-1.222-0.789-0.873c-0.75,0.496-1.502,0.992-2.253,1.49
		c-14.501,9.596-29.001,19.191-43.501,28.787c-0.298,0.195-0.615,0.405-1.041,0.688c-0.426,0.283-1.273-0.997-0.848-1.279
		c13.656-9.037,27.483-18.188,41.148-27.229c1.932-1.279,3.863-2.557,5.795-3.834c2.224-1.473,3.534,2.561,4.462,3.964
		c5.175,7.819,10.349,15.638,15.522,23.458c0.396,0.6,1.516,1.551,1.549,2.323c0.055,1.167-0.344,1.639-1.192,2.199
		c-2.485,1.645-4.97,3.288-7.452,4.933c-8.603,5.691-17.205,11.383-25.807,17.076c-3.354,2.221-6.709,4.439-10.064,6.659
		c-1.373,0.909-4.082,3.272-5.512,1.11c-4.498-6.797-8.996-13.596-13.494-20.393c-1.374-2.076-2.748-4.152-4.123-6.229
		c-0.824-1.246-2.231-2.711-0.881-4.125C1525.57,418.691,1526.77,419.801,1526.037,420.568z"/>
	<path fill="#A8E0FF" d="M1588.635,412.95c0,0-27.074,17.917-40.623,26.882c-2.291,1.516-4.61,3.051-6.744,4.463
		c-0.854,0.564-1.701-0.715-0.848-1.279c13.229-8.754,26.967-17.846,40.516-26.811c2.291-1.516,4.292-2.84,6.853-4.535
		C1588.641,411.105,1589.488,412.385,1588.635,412.95C1588.635,412.95,1589.488,412.385,1588.635,412.95z"/>
	<path fill="#A8E0FF" d="M1577.058,395.455c0,0-27.026,17.883-40.587,26.857c-2.121,1.402-4.221,2.793-6.354,4.204
		c-0.854,0.565-1.701-0.716-0.849-1.28c13.655-9.036,27.118-17.946,40.683-26.92c2.12-1.403,4.125-2.73,6.259-4.143
		C1577.063,393.608,1577.911,394.891,1577.058,395.455C1577.058,395.455,1577.911,394.891,1577.058,395.455z"/>
	<path fill="#A8E0FF" d="M1592.64,404.165c0,0-4.269,2.823-6.401,4.235c-0.854,0.564-1.701-0.715-0.848-1.279
		c2.134-1.412,4.695-3.106,6.4-4.236C1593.072,402.038,1593.92,403.317,1592.64,404.165
		C1592.64,404.165,1593.92,403.317,1592.64,404.165z"/>
	<path fill="#A8E0FF" d="M1586.709,395.203c0,0-4.268,2.824-5.975,3.954c-0.853,0.565-1.701-0.716-0.847-1.28
		c1.707-1.13,4.267-2.824,5.974-3.953C1587.143,393.076,1587.988,394.356,1586.709,395.203
		C1586.709,395.203,1587.988,394.356,1586.709,395.203z"/>
	<g>
		<path fill="#A8E0FF" d="M1540.254,441.283c0.095-0.063,0.048-0.303-0.107-0.537l-7.911-11.955
			c-0.155-0.233-0.357-0.372-0.453-0.309l-2.641,1.748c-0.097,0.063-0.048,0.304,0.106,0.537l7.911,11.955
			c0.155,0.234,0.357,0.373,0.453,0.309L1540.254,441.283z"/>
		<path fill="#A8E0FF" d="M1537.467,442.515c-0.172,0.112-0.476-0.045-0.682-0.356l-7.729-11.68
			c-0.205-0.31-0.231-0.652-0.061-0.766l2.794-1.849c0.17-0.114,0.476,0.046,0.681,0.356l7.729,11.68
			c0.206,0.309,0.232,0.652,0.062,0.766L1537.467,442.515z M1540.084,440.783c0.033-0.021-0.025-0.169-0.129-0.327l-7.81-11.803
			c-0.104-0.157-0.218-0.267-0.251-0.246l-2.865,1.897c-0.034,0.022,0.023,0.168,0.129,0.325l7.811,11.804
			c0.104,0.158,0.215,0.269,0.249,0.246L1540.084,440.783z"/>
	</g>
	<g>
		<path fill="#A8E0FF" d="M1541.797,446.398c0.096-0.063,0.152-0.145,0.128-0.183l-1.321-1.997
			c-0.024-0.037-0.123-0.017-0.219,0.046l-2.641,1.747c-0.096,0.064-0.152,0.146-0.128,0.184l1.321,1.997
			c0.025,0.038,0.124,0.017,0.219-0.046L1541.797,446.398z"/>
		<path fill="#A8E0FF" d="M1539.295,448.056c-0.172,0.112-0.373,0.113-0.447-0.001l-1.422-2.148
			c-0.075-0.113,0.003-0.297,0.174-0.412l2.792-1.846c0.173-0.115,0.372-0.115,0.447,0l1.423,2.147
			c0.075,0.114-0.004,0.299-0.176,0.411L1539.295,448.056z M1541.935,446.309c0.019-0.014,0.034-0.025,0.034-0.027l-1.408-2.129
			c-0.002-0.002-0.018,0.01-0.039,0.022l-2.914,1.929c-0.02,0.013-0.035,0.024-0.035,0.025l1.408,2.13
			c0.002,0.001,0.019-0.009,0.039-0.022L1541.935,446.309z"/>
	</g>
	<g>
		<path fill="#A8E0FF" d="M1528.525,426.343c0.096-0.064,0.152-0.146,0.127-0.185l-1.32-1.994c-0.024-0.039-0.124-0.019-0.219,0.045
			l-2.641,1.747c-0.096,0.063-0.152,0.146-0.128,0.185l1.321,1.995c0.025,0.038,0.123,0.018,0.219-0.046L1528.525,426.343z"/>
		<path fill="#A8E0FF" d="M1526.021,427.999c-0.171,0.112-0.371,0.114-0.445,0l-1.423-2.149c-0.075-0.113,0.002-0.298,0.174-0.411
			l2.793-1.849c0.172-0.113,0.372-0.111,0.447,0.002l1.421,2.148c0.076,0.113-0.002,0.297-0.175,0.41L1526.021,427.999z
			 M1528.662,426.252c0.02-0.014,0.036-0.025,0.035-0.026l-1.409-2.13c-0.002-0.001-0.019,0.009-0.038,0.022l-2.915,1.929
			c-0.021,0.013-0.034,0.025-0.034,0.025l1.408,2.129c0.002,0.002,0.02-0.007,0.039-0.021L1528.662,426.252z"/>
	</g>
	<path fill="#A8E0FF" d="M1574.691,406.234c-0.836,0.729,0.36,1.934,0.802,2.602c0.438,0.661,1.021,2.109,2.017,1.239
		c0.577-0.505-0.817-1.968-1.084-2.37c-0.396-0.598-1.096-1.878-1.949-1.313c-0.427,0.282-0.88-0.403-0.453-0.685
		c1.707-1.13,2.279,0.322,2.971,1.365c0.707,1.069,2.23,2.578,0.887,3.754c-1.344,1.174-2.306-0.342-2.973-1.348
		c-0.707-1.07-2.19-2.605-0.845-3.781C1574.457,405.354,1575.089,405.885,1574.691,406.234z"/>
	<path fill="#A8E0FF" d="M1592.697,404.293c-0.18,0.127,0.092-0.169,0.098-0.613c0.025-1.674-1.157-3.367-2.025-4.697
		c-1.198-1.838-2.704-5.022-5.332-4.611c-1.047,0.166-1.131-1.479-0.092-1.642c3.623-0.567,5.783,3.691,7.374,6.257
		c0.908,1.46,2.965,5.209,0.884,6.678C1592.736,406.275,1591.832,404.903,1592.697,404.293L1592.697,404.293z"/>
</g>
<g opacity="0.43">
	<g>
		<g>
			<g>
				<path fill="#294A8F" d="M1672.814,190.716l-6.568-5.37l1.096-1.339l1.371-1.677l1.631-1.996
					c1.121-1.369,0.916-3.396-0.453-4.517l-8.103-6.623c-1.371-1.12-3.397-0.917-4.519,0.452l-1.633,1.996l-1.369,1.677l-1.096,1.34
					l-6.565-5.368c-2.163-1.768-5.362-1.447-7.13,0.716l-30.336,37.109c-1.768,2.163-1.447,5.362,0.717,7.131l2.072,1.694
					l-1.302,1.592c-0.819,1.004-0.669,2.487,0.334,3.308c1.004,0.821,2.488,0.673,3.307-0.331l1.302-1.592l14.781,12.083
					l-1.301,1.592c-0.819,1.003-0.67,2.487,0.335,3.308c1.007,0.824,2.49,0.674,3.309-0.329l1.302-1.592l2.073,1.694
					c2.163,1.768,5.36,1.449,7.131-0.717l30.335-37.108C1675.296,195.682,1674.979,192.483,1672.814,190.716z M1660.742,170.473
					l8.104,6.624c0.658,0.538,0.76,1.511,0.231,2.174c-0.206-0.479-0.517-0.929-0.956-1.288l-8.104-6.623
					c-0.439-0.36-0.942-0.577-1.454-0.684C1659.11,170.026,1660.082,169.934,1660.742,170.473z M1655.547,174.363l1.369-1.676
					c0.461-0.563,1.4-0.586,2.057-0.049l8.104,6.623c0.655,0.535,0.817,1.461,0.357,2.023l-1.369,1.677l-1.097,1.339l-10.517-8.598
					L1655.547,174.363z M1612.994,219.461c-0.246,0.302-0.689,0.346-0.986,0.102c-0.301-0.245-0.348-0.688-0.101-0.988l1.302-1.59
					l1.082,0.885L1612.994,219.461L1612.994,219.461z M1631.414,234.52c-0.245,0.302-0.687,0.347-0.986,0.102
					c-0.302-0.246-0.347-0.689-0.101-0.99l1.3-1.59l1.082,0.885l-1.299,1.591L1631.414,234.52L1631.414,234.52z M1641.916,233.908
					c-1.19,1.457-3.352,1.672-4.807,0.482l-26.207-21.422c-1.458-1.192-1.675-3.35-0.484-4.808l30.336-37.108
					c1.192-1.459,3.35-1.674,4.807-0.482l26.209,21.424c1.457,1.191,1.676,3.349,0.483,4.807l-30.335,37.109L1641.916,233.908
					L1641.916,233.908z"/>
			</g>
		</g>
		<path fill="#294A8F" d="M1641.532,229.835c-1.301,1.591-3.772,1.72-5.522,0.288l-20.977-17.146
			c-1.751-1.432-2.116-3.879-0.814-5.469l23.64-28.921c1.3-1.59,3.772-1.719,5.521-0.288l20.979,17.146
			c1.749,1.432,2.114,3.88,0.814,5.471L1641.532,229.835z M1664.423,199.895c0.761-0.93,0.493-2.407-0.599-3.299l-21.228-17.354
			c-1.091-0.891-2.59-0.859-3.353,0.07l-23.652,28.936c-0.759,0.93-0.492,2.406,0.599,3.297l21.229,17.354
			c1.091,0.892,2.592,0.86,3.352-0.069L1664.423,199.895z"/>
		<path fill="#294A8F" d="M1652.447,194.031l-5.527-4.519c-0.577-0.471-0.644-1.348-0.172-1.923
			c0.471-0.578,1.343-0.686,1.919-0.215l5.528,4.518c0.576,0.473,0.643,1.348,0.172,1.925
			C1653.896,194.393,1653.023,194.502,1652.447,194.031z M1647.891,188.325c-0.165-0.134-0.262-0.29-0.396-0.124
			c-0.134,0.164,0.037,0.227,0.202,0.361l5.527,4.518c0.165,0.136,0.261,0.291,0.396,0.126c0.136-0.165-0.036-0.228-0.201-0.361
			L1647.891,188.325z"/>
	</g>
	<g>
		<line fill="#294A8F" x1="1630.678" y1="193.671" x2="1652.293" y2="211.341"/>
		<path fill="#294A8F" d="M1630.291,194.146c0,0,8.18,6.688,12.324,10.074c3.049,2.492,6.202,5.07,9.289,7.594
			c0.476,0.389,1.252-0.561,0.778-0.949c-4.276-3.496-8.433-6.895-12.577-10.281c-3.05-2.492-6.188-5.059-9.038-7.389
			C1630.592,192.808,1629.815,193.758,1630.291,194.146C1630.291,194.146,1629.815,193.758,1630.291,194.146z"/>
	</g>
</g>
<g opacity="0.75">
	<path fill="#294A8F" d="M1819.453,251.273c0.506,0.93,3.119-0.309,3.772-0.494c2.677-0.754,5.354-1.51,8.029-2.267
		c7.122-2.011,14.243-4.021,21.365-6.032c4.354-1.229,8.708-2.459,13.063-3.688c1.106-0.313-0.744-6.145-0.964-6.926
		c-6.496-23.007-12.993-46.014-19.489-69.021c-0.369-1.307-7.451,1.851-8.418,2.124c-6.938,1.958-13.873,3.917-20.811,5.875
		c-5.4,1.525-10.801,3.049-16.201,4.574c-0.646,0.184-1.744-0.171-1.502,0.68c0.342,1.214,0.686,2.428,1.026,3.643
		c6.623,23.453,13.245,46.906,19.867,70.359c0.136,0.48,0.28,0.993,0.476,1.684c0.194,0.689-1.876,1.275-2.07,0.584
		c-6.236-22.086-12.551-44.451-18.791-66.553c-0.883-3.123-1.765-6.248-2.647-9.371c-1.016-3.598,4.931-3.625,7.198-4.265
		c12.645-3.571,25.293-7.142,37.939-10.712c0.971-0.274,2.719-1.361,3.764-1.077c1.581,0.426,2.04,1.16,2.427,2.531
		c1.136,4.019,2.27,8.037,3.403,12.056c3.929,13.913,7.856,27.825,11.786,41.737c1.531,5.426,3.063,10.852,4.596,16.277
		c0.628,2.222,2.628,6.846-0.87,7.832c-10.994,3.104-21.988,6.209-32.982,9.313c-3.358,0.949-6.717,1.897-10.075,2.846
		c-2.015,0.568-4.571,1.824-5.882-0.584C1816.752,251.096,1818.743,249.969,1819.453,251.273z"/>
	<path fill="#294A8F" d="M1835.997,164.455c0,0,12.365,43.791,18.552,65.703c1.047,3.705,2.105,7.457,3.08,10.908
		c0.39,1.379-1.682,1.965-2.07,0.585c-6.043-21.396-12.316-43.616-18.502-65.526c-1.047-3.708-1.961-6.944-3.129-11.085
		C1833.535,163.659,1835.607,163.075,1835.997,164.455C1835.997,164.455,1835.607,163.075,1835.997,164.455z"/>
	<path fill="#294A8F" d="M1807.699,172.444c0,0,12.341,43.71,18.535,65.646c0.97,3.43,1.928,6.825,2.902,10.275
		c0.39,1.382-1.683,1.966-2.072,0.586c-6.234-22.087-12.383-43.861-18.577-65.798c-0.969-3.429-1.885-6.673-2.858-10.124
		C1805.238,171.648,1807.309,171.064,1807.699,172.444C1807.699,172.444,1807.309,171.064,1807.699,172.444z"/>
	<path fill="#294A8F" d="M1825.977,155.36c0,0,1.949,6.902,2.923,10.353c0.391,1.38-1.681,1.965-2.069,0.585
		c-0.976-3.452-2.145-7.593-2.924-10.354C1823.322,153.874,1825.393,153.29,1825.977,155.36
		C1825.977,155.36,1825.393,153.29,1825.977,155.36z"/>
	<path fill="#294A8F" d="M1811.483,159.453c0,0,1.948,6.902,2.728,9.662c0.39,1.381-1.682,1.966-2.07,0.584
		c-0.78-2.76-1.949-6.9-2.729-9.662C1808.826,157.967,1810.897,157.382,1811.483,159.453
		C1811.483,159.453,1810.897,157.382,1811.483,159.453z"/>
	<g>
		<path fill="#294A8F" d="M1853.177,241.135c-0.044-0.154-0.386-0.193-0.764-0.086l-19.337,5.459
			c-0.377,0.107-0.648,0.318-0.605,0.475l1.207,4.27c0.043,0.156,0.386,0.195,0.764,0.088l19.335-5.46
			c0.379-0.106,0.649-0.319,0.606-0.474L1853.177,241.135z"/>
		<path fill="#294A8F" d="M1853.631,245.379c0.078,0.277-0.265,0.617-0.766,0.759l-18.893,5.334
			c-0.501,0.142-0.971,0.031-1.049-0.246l-1.274-4.517c-0.08-0.278,0.263-0.617,0.765-0.759l18.892-5.334
			c0.501-0.142,0.972-0.032,1.05,0.245L1853.631,245.379z M1852.436,241.148c-0.016-0.055-0.235-0.04-0.49,0.033l-19.09,5.389
			c-0.256,0.072-0.451,0.176-0.436,0.229l1.309,4.637c0.016,0.054,0.235,0.039,0.491-0.033l19.089-5.391
			c0.256-0.072,0.45-0.174,0.436-0.229L1852.436,241.148z"/>
	</g>
	<g>
		<path fill="#294A8F" d="M1860.664,241.258c-0.044-0.155-0.129-0.267-0.189-0.25l-3.23,0.912c-0.061,0.018-0.075,0.156-0.033,0.313
			l1.207,4.27c0.044,0.155,0.129,0.268,0.19,0.25l3.229-0.912c0.06-0.018,0.074-0.156,0.031-0.313L1860.664,241.258z"/>
		<path fill="#294A8F" d="M1861.807,245.306c0.078,0.276-0.008,0.544-0.191,0.597l-3.476,0.98c-0.184,0.053-0.395-0.13-0.474-0.408
			l-1.275-4.516c-0.079-0.278,0.006-0.545,0.191-0.597l3.475-0.981c0.184-0.053,0.396,0.131,0.475,0.408L1861.807,245.306z
			 M1860.601,241.036c-0.01-0.032-0.018-0.059-0.019-0.059l-3.445,0.973c-0.002,0.001,0.004,0.028,0.014,0.06l1.33,4.715
			c0.01,0.032,0.02,0.059,0.02,0.057l3.445-0.973c0.002,0-0.004-0.027-0.014-0.06L1860.601,241.036z"/>
	</g>
	<g>
		<path fill="#294A8F" d="M1828.224,250.416c-0.042-0.154-0.128-0.266-0.19-0.248l-3.227,0.911
			c-0.062,0.018-0.076,0.157-0.034,0.312l1.206,4.271c0.044,0.155,0.13,0.267,0.191,0.25l3.229-0.911
			c0.061-0.019,0.075-0.158,0.032-0.314L1828.224,250.416z"/>
		<path fill="#294A8F" d="M1829.367,254.465c0.079,0.277-0.007,0.545-0.192,0.597l-3.472,0.981
			c-0.185,0.053-0.398-0.131-0.477-0.408l-1.275-4.517c-0.078-0.278,0.007-0.546,0.191-0.597l3.476-0.98
			c0.183-0.053,0.396,0.13,0.473,0.408L1829.367,254.465z M1828.162,250.195c-0.009-0.033-0.018-0.059-0.02-0.059l-3.445,0.973
			c-0.002,0.001,0.004,0.027,0.015,0.061l1.33,4.713c0.009,0.033,0.019,0.059,0.02,0.059l3.445-0.974
			c0.001,0-0.006-0.026-0.014-0.059L1828.162,250.195z"/>
	</g>
	<path fill="#294A8F" d="M1821.078,180.203c0.619,1.426,2.737,0.344,3.817,0.039c1.07-0.301,3.251-0.462,2.515-2.161
		c-0.427-0.987-2.975,0.251-3.627,0.435c-0.966,0.273-2.974,0.66-2.584,2.041c0.195,0.689-0.914,1.003-1.108,0.313
		c-0.78-2.761,1.402-2.904,3.093-3.381c1.729-0.49,4.393-1.879,5.388,0.418c0.995,2.293-1.44,2.932-3.067,3.391
		c-1.73,0.488-4.413,1.813-5.408-0.483C1819.805,180.141,1820.784,179.523,1821.078,180.203z"/>
	<path fill="#294A8F" d="M1826.172,155.339c0.094,0.294-0.186-0.196-0.775-0.394c-2.226-0.748-4.99,0.109-7.136,0.7
		c-2.964,0.815-7.859,1.467-8.431,5.152c-0.229,1.467-2.458,0.878-2.231-0.579c0.789-5.081,7.395-6.145,11.498-7.177
		c2.337-0.587,8.222-1.732,9.292,1.671C1828.836,156.13,1826.618,156.753,1826.172,155.339L1826.172,155.339z"/>
</g>
<g opacity="0.9">
	<path fill="#294A8F" d="M1936.24,383.672c6.821,7.004,5.855,19.009-2.157,26.811l-54.59,53.162
		c-8.013,7.802-20.038,8.449-26.86,1.443l-20.116-20.656c-6.82-7.005-5.855-19.01,2.157-26.812l54.592-53.161
		c8.011-7.803,20.036-8.449,26.858-1.444L1936.24,383.672z M1914.138,364.789c-5.898-6.059-16.407-5.391-23.472,1.488
		l-54.484,53.057c-7.063,6.879-8.01,17.366-2.111,23.424l20.013,20.55c5.897,6.058,16.406,5.39,23.471-1.489l54.483-53.057
		c7.065-6.879,8.01-17.367,2.111-23.424L1914.138,364.789z"/>
	<g>
		<path fill="#294A8F" d="M1880.95,374.346c-0.042-0.036-4.347-3.744-10.66-5.283c-8.313-2.025-16.148,0.416-23.235,7.317
			l-0.297,0.289c-7.085,6.9-9.735,14.667-7.935,23.028c1.369,6.352,4.946,10.734,4.981,10.778l-2.017,1.737
			c-0.159-0.191-3.89-4.75-5.392-11.613c-1.404-6.413-1.01-16.041,8.771-25.564l0.297-0.289c9.78-9.525,19.421-9.658,25.795-8.082
			c6.824,1.688,11.292,5.549,11.479,5.711L1880.95,374.346z"/>
	</g>
	<path fill="#294A8F" d="M1913.912,381.993c1.57,1.612,1.536,4.19-0.076,5.761l-56.255,54.781c-1.614,1.57-4.191,1.535-5.76-0.076
		l-17.654-18.129c-1.57-1.611-1.536-4.19,0.075-5.76l56.256-54.782c1.612-1.57,4.191-1.536,5.762,0.077L1913.912,381.993z
		 M1894.81,365.645c-0.647-0.663-1.708-0.677-2.372-0.031l-56.148,54.678c-0.664,0.648-0.678,1.709-0.032,2.373l17.815,18.293
		c0.646,0.664,1.707,0.679,2.371,0.032l56.149-54.678c0.663-0.646,0.678-1.708,0.031-2.372L1894.81,365.645z"/>
	<path fill="#294A8F" d="M1892.757,412.576c1.451,1.488,1.32,3.969-0.292,5.539l-4.239,4.129c-1.61,1.568-4.095,1.633-5.545,0.144
		l-0.58-0.595c-1.451-1.492-1.32-3.972,0.291-5.541l4.24-4.129c1.611-1.57,4.095-1.634,5.546-0.144L1892.757,412.576z
		 M1890.189,413.753c-0.527-0.542-1.493-0.457-2.156,0.188l-4.134,4.024c-0.663,0.646-0.772,1.61-0.245,2.151l0.476,0.49
		c0.527,0.541,1.493,0.457,2.157-0.189l4.133-4.024c0.663-0.646,0.773-1.609,0.246-2.151L1890.189,413.753z"/>
</g>
<g opacity="0.9">
	<g>
		<g>
			<g>
				<path fill="#294A8F" d="M196.109,317.193l-15.672,5.617l-1.145-3.196l-1.433-4l-1.709-4.761c-1.17-3.27-4.788-4.977-8.055-3.805
					l-19.331,6.93c-3.271,1.172-4.979,4.787-3.809,8.057l1.707,4.762l1.434,4l1.146,3.197l-15.668,5.615
					c-5.158,1.85-7.854,7.555-6.005,12.717l31.739,88.54c1.85,5.161,7.557,7.856,12.717,6.007l4.944-1.773l1.362,3.799
					c0.857,2.393,3.506,3.641,5.9,2.783c2.396-0.859,3.646-3.505,2.787-5.897l-1.36-3.8l35.267-12.642l1.36,3.798
					c0.859,2.394,3.507,3.643,5.905,2.783c2.4-0.86,3.65-3.507,2.791-5.9l-1.361-3.798l4.944-1.772
					c5.161-1.851,7.858-7.55,6.006-12.717l-31.738-88.541C206.97,318.042,201.271,315.344,196.109,317.193z M149.857,317.029
					l19.334-6.931c1.57-0.563,3.308,0.248,3.891,1.809c-1.015-0.141-2.084-0.069-3.135,0.307l-19.332,6.93
					c-1.049,0.377-1.924,1.002-2.618,1.756C147.457,319.324,148.285,317.594,149.857,317.029z M151.148,329.703l-1.434-4
					c-0.48-1.342,0.432-2.948,1.995-3.509l19.332-6.931c1.563-0.561,3.286,0.103,3.767,1.445l1.436,3.998l1.145,3.197l-25.094,8.996
					L151.148,329.703z M183.97,446.869c0.257,0.719-0.116,1.507-0.83,1.762c-0.714,0.256-1.503-0.115-1.763-0.832l-1.359-3.795
					l2.587-0.928L183.97,446.869L183.97,446.869z M227.92,431.114c0.259,0.718-0.111,1.505-0.828,1.762
					c-0.719,0.257-1.509-0.114-1.766-0.831l-1.36-3.795l2.583-0.926l1.361,3.794L227.92,431.114L227.92,431.114z M237.51,412.834
					c1.248,3.479-0.576,7.327-4.051,8.573l-62.525,22.413c-3.477,1.247-7.326-0.568-8.573-4.047l-31.739-88.541
					c-1.246-3.479,0.571-7.325,4.049-8.571l62.534-22.417c3.478-1.246,7.325,0.568,8.571,4.048l31.74,88.54L237.51,412.834
					L237.51,412.834z"/>
			</g>
		</g>
		<path fill="#294A8F" d="M230.271,409.361c1.362,3.795-0.92,8.083-5.097,9.58l-50.049,17.941
			c-4.178,1.498-8.665-0.365-10.023-4.159l-24.736-69.001c-1.357-3.795,0.922-8.082,5.099-9.58l50.05-17.941
			c4.178-1.498,8.663,0.365,10.024,4.158L230.271,409.361z M203.061,340.589c-0.795-2.22-3.548-3.263-6.15-2.33l-50.652,18.157
			c-2.601,0.932-4.064,3.486-3.27,5.707l24.748,69.036c0.797,2.22,3.549,3.263,6.15,2.33l50.653-18.157
			c2.601-0.932,4.064-3.488,3.27-5.707L203.061,340.589z"/>
		<path fill="#294A8F" d="M181.092,354.801l-13.189,4.729c-1.374,0.493-2.915-0.279-3.408-1.656
			c-0.492-1.375,0.205-2.951,1.581-3.444l13.188-4.728c1.376-0.494,2.916,0.281,3.408,1.655
			C183.164,352.732,182.468,354.309,181.092,354.801z M166.889,356.695c-0.395,0.141-0.753,0.146-0.611,0.539
			c0.141,0.393,0.42,0.168,0.813,0.027l13.189-4.727c0.393-0.142,0.751-0.146,0.61-0.539c-0.142-0.393-0.421-0.169-0.813-0.027
			L166.889,356.695z"/>
	</g>
	<g>
		<line fill="#294A8F" x1="158.475" y1="391.049" x2="210.047" y2="372.563"/>
		<path fill="#294A8F" d="M158.881,392.182c0,0,19.52-6.997,29.408-10.542c7.273-2.607,14.797-5.304,22.163-7.944
			c1.133-0.406,0.321-2.674-0.813-2.268c-10.2,3.658-20.118,7.213-30.005,10.756c-7.274,2.608-14.765,5.293-21.565,7.731
			C156.936,390.321,157.748,392.59,158.881,392.182C158.881,392.182,157.748,392.59,158.881,392.182z"/>
	</g>
</g>
<g opacity="0.43">
	<path fill="#294A8F" d="M-14.328,280.063c-0.355,1.07,2.508,2.205,3.125,2.579c2.534,1.536,5.07,3.072,7.604,4.608
		c6.744,4.086,13.486,8.172,20.23,12.259c4.123,2.499,8.245,4.997,12.37,7.496c1.047,0.635,4.245-5.046,4.693-5.786
		c13.201-21.783,26.403-43.568,39.604-65.354c0.75-1.238-6.858-4.461-7.774-5.016c-6.567-3.98-13.136-7.961-19.704-11.941
		c-5.114-3.099-10.227-6.197-15.341-9.297c-0.612-0.37-1.134-1.482-1.622-0.677c-0.696,1.15-1.393,2.3-2.091,3.449
		C13.31,234.592-0.147,256.8-13.605,279.007c-0.275,0.454-0.57,0.94-0.965,1.595c-0.397,0.652-2.357-0.535-1.962-1.189
		c12.674-20.912,25.507-42.09,38.189-63.018c1.792-2.958,3.585-5.916,5.377-8.874c2.064-3.406,6.407,1.206,8.554,2.507
		c11.975,7.256,23.95,14.514,35.926,21.77c0.919,0.558,3.036,1.13,3.575,2.15c0.816,1.541,0.579,2.432-0.208,3.73
		c-2.306,3.806-4.611,7.611-6.918,11.416c-7.982,13.172-15.966,26.346-23.948,39.52c-3.113,5.138-6.228,10.275-9.341,15.414
		c-1.274,2.103-3.423,7.021-6.733,5.016c-10.41-6.309-20.821-12.617-31.231-18.926c-3.18-1.928-6.36-3.854-9.54-5.781
		c-1.909-1.157-4.743-2.234-3.821-5.007C-16.154,277.828-13.829,278.56-14.328,280.063z"/>
	<path fill="#294A8F" d="M65.334,229.84c0,0-25.128,41.466-37.701,62.215c-2.126,3.508-4.279,7.061-6.259,10.328
		c-0.792,1.307-2.753,0.119-1.962-1.188c12.277-20.261,25.027-41.301,37.602-62.048c2.127-3.509,3.984-6.575,6.36-10.495
		C64.166,227.345,66.125,228.533,65.334,229.84C65.334,229.84,66.125,228.533,65.334,229.84z"/>
	<path fill="#294A8F" d="M38.539,213.603c0,0-25.082,41.388-37.668,62.158c-1.967,3.247-3.916,6.464-5.896,9.731
		c-0.792,1.307-2.753,0.119-1.961-1.188C5.688,263.391,18.182,242.771,30.77,222c1.967-3.246,3.828-6.318,5.809-9.586
		C37.37,211.107,39.33,212.295,38.539,213.603C38.539,213.603,39.33,212.295,38.539,213.603z"/>
	<path fill="#294A8F" d="M65.136,215.422c0,0-3.961,6.537-5.941,9.803c-0.792,1.309-2.752,0.121-1.96-1.186
		c1.98-3.269,4.356-7.191,5.939-9.805C64.363,212.274,66.323,213.462,65.136,215.422C65.136,215.422,66.323,213.462,65.136,215.422z
		"/>
	<path fill="#294A8F" d="M51.411,207.105c0,0-3.96,6.536-5.545,9.149c-0.792,1.308-2.753,0.12-1.961-1.188
		c1.585-2.614,3.96-6.536,5.544-9.149C50.638,203.957,52.6,205.145,51.411,207.105C51.411,207.105,52.6,205.145,51.411,207.105z"/>
	<g>
		<path fill="#294A8F" d="M18.083,298.965c0.09-0.146-0.13-0.441-0.486-0.658l-18.311-11.096c-0.356-0.217-0.72-0.273-0.81-0.127
			l-2.45,4.044c-0.089,0.146,0.13,0.441,0.487,0.658l18.311,11.095c0.357,0.218,0.72,0.274,0.809,0.128L18.083,298.965z"/>
		<path fill="#294A8F" d="M15.106,302.403c-0.159,0.263-0.672,0.243-1.146-0.045l-17.89-10.841c-0.475-0.287-0.73-0.734-0.57-0.996
			l2.592-4.276c0.159-0.263,0.671-0.243,1.147,0.044l17.888,10.84c0.475,0.287,0.73,0.734,0.571,0.997L15.106,302.403z
			 M17.535,298.396c0.031-0.052-0.142-0.213-0.383-0.358l-18.076-10.954c-0.241-0.146-0.463-0.225-0.494-0.173l-2.66,4.39
			c-0.03,0.051,0.141,0.212,0.382,0.357l18.077,10.955c0.242,0.146,0.463,0.224,0.494,0.172L17.535,298.396z"/>
	</g>
	<g>
		<path fill="#294A8F" d="M23.431,304.887c0.089-0.146,0.114-0.294,0.057-0.33l-3.058-1.853c-0.059-0.035-0.178,0.056-0.268,0.201
			l-2.45,4.044c-0.089,0.146-0.112,0.295-0.055,0.33l3.057,1.852c0.059,0.035,0.178-0.055,0.267-0.201L23.431,304.887z"/>
		<path fill="#294A8F" d="M21.107,308.72c-0.158,0.263-0.429,0.39-0.604,0.284l-3.291-1.994c-0.174-0.105-0.186-0.404-0.025-0.666
			l2.591-4.276c0.159-0.264,0.429-0.392,0.604-0.284l3.289,1.992c0.176,0.105,0.187,0.404,0.027,0.668L21.107,308.72z
			 M23.559,304.676c0.018-0.031,0.031-0.057,0.03-0.057l-3.263-1.977c-0.001-0.002-0.018,0.023-0.035,0.054l-2.705,4.463
			c-0.02,0.031-0.033,0.057-0.031,0.058l3.262,1.977c0.002,0.002,0.019-0.022,0.037-0.055L23.559,304.676z"/>
	</g>
	<g>
		<path fill="#294A8F" d="M-7.285,286.273c0.088-0.147,0.113-0.295,0.054-0.331l-3.056-1.852c-0.058-0.035-0.178,0.056-0.266,0.202
			l-2.451,4.043c-0.089,0.146-0.113,0.294-0.056,0.33l3.058,1.852c0.058,0.035,0.178-0.055,0.266-0.202L-7.285,286.273z"/>
		<path fill="#294A8F" d="M-9.608,290.105c-0.159,0.263-0.429,0.391-0.604,0.285l-3.289-1.994c-0.174-0.105-0.188-0.404-0.027-0.667
			l2.591-4.276c0.159-0.263,0.431-0.391,0.604-0.284l3.29,1.993c0.174,0.105,0.186,0.404,0.026,0.666L-9.608,290.105z
			 M-7.158,286.063c0.019-0.03,0.032-0.057,0.03-0.058l-3.261-1.977c-0.002-0.001-0.02,0.022-0.037,0.054l-2.705,4.464
			c-0.019,0.03-0.031,0.057-0.031,0.058l3.262,1.977c0.002,0.002,0.019-0.023,0.037-0.055L-7.158,286.063z"/>
	</g>
	<path fill="#294A8F" d="M42.221,229.666c-0.662,1.518,1.721,2.383,2.744,3.002c1.013,0.613,2.724,2.197,3.512,0.389
		c0.459-1.052-2.357-2.137-2.976-2.512c-0.914-0.554-2.675-1.836-3.468-0.528c-0.396,0.653-1.446,0.017-1.05-0.636
		c1.584-2.615,3.282-1.02,4.883-0.051c1.637,0.993,4.657,2.058,3.592,4.503c-1.065,2.442-3.333,1.009-4.874,0.075
		c-1.637-0.992-4.619-2.119-3.553-4.564C41.344,228.629,42.535,228.942,42.221,229.666z"/>
	<path fill="#294A8F" d="M65.293,215.559c-0.16,0.286,0.019-0.287-0.256-0.891c-1.035-2.277-3.713-3.807-5.732-5.051
		c-2.79-1.717-6.855-5.055-10.143-2.823c-1.309,0.89-2.47-1.274-1.171-2.157c4.532-3.08,10.163,1.293,13.95,3.74
		c2.156,1.395,7.325,5.145,5.453,8.455C66.613,218.211,64.516,216.935,65.293,215.559L65.293,215.559z"/>
</g>
<g opacity="0.75">
	<path fill="#294A8F" d="M378.974,245.333c0.618,9.737-7.911,18.202-19.05,18.908l-75.881,4.806
		c-11.137,0.705-20.666-6.615-21.281-16.354l-1.82-28.713c-0.617-9.736,7.912-18.202,19.05-18.907l75.883-4.807
		c11.136-0.705,20.665,6.616,21.282,16.354L378.974,245.333z M374.498,216.674c-0.531-8.42-8.926-14.74-18.744-14.119l-75.733,4.797
		c-9.819,0.622-17.348,7.951-16.815,16.37l1.811,28.565c0.533,8.419,8.926,14.739,18.746,14.117l75.731-4.797
		c9.819-0.621,17.349-7.951,16.814-16.369L374.498,216.674z"/>
	<g>
		<path fill="#294A8F" d="M343.152,202.355c-0.008-0.057-0.859-5.659-4.643-10.927c-4.98-6.935-12.502-10.174-22.352-9.55
			l-0.413,0.025c-9.849,0.625-16.901,4.785-20.97,12.289c-3.088,5.7-3.225,11.343-3.227,11.4l-2.656,0.005
			c0.004-0.249,0.139-6.123,3.459-12.299c3.103-5.77,9.655-12.806,23.25-13.667l0.414-0.025c13.596-0.861,20.982,5.3,24.787,10.635
			c4.073,5.711,4.949,11.537,4.985,11.783L343.152,202.355z"/>
	</g>
	<path fill="#294A8F" d="M363.152,229.559c0.142,2.24-1.559,4.172-3.8,4.313l-78.194,4.953c-2.241,0.143-4.172-1.559-4.313-3.799
		l-1.597-25.198c-0.142-2.241,1.56-4.173,3.8-4.313l78.194-4.953c2.242-0.143,4.174,1.559,4.314,3.799L363.152,229.559z
		 M359.303,204.768c-0.06-0.924-0.854-1.623-1.776-1.565l-78.047,4.944c-0.923,0.059-1.624,0.854-1.563,1.775l1.609,25.43
		c0.059,0.922,0.853,1.623,1.775,1.564l78.047-4.944c0.923-0.059,1.623-0.853,1.565-1.776L359.303,204.768z"/>
	<path fill="#294A8F" d="M327.264,238.98c0.131,2.072-1.579,3.865-3.818,4.008l-5.895,0.373c-2.24,0.142-4.162-1.422-4.294-3.493
		l-0.052-0.829c-0.131-2.07,1.578-3.865,3.818-4.006l5.895-0.373c2.239-0.143,4.162,1.422,4.293,3.493L327.264,238.98z
		 M324.554,238.205c-0.048-0.752-0.835-1.316-1.757-1.258l-5.744,0.363c-0.923,0.059-1.633,0.717-1.585,1.471l0.044,0.68
		c0.047,0.753,0.834,1.316,1.757,1.258l5.745-0.363c0.922-0.06,1.631-0.717,1.583-1.471L324.554,238.205z"/>
</g>
<g opacity="0.43">
	<g>
		<g>
			<g>
				<path fill="#294A8F" d="M177.936,977.544l-12.6-1.236l0.254-2.569l0.316-3.217l0.373-3.828c0.26-2.629-1.672-4.977-4.298-5.236
					l-15.542-1.523c-2.629-0.257-4.979,1.671-5.239,4.299l-0.378,3.83l-0.313,3.216l-0.252,2.569l-12.595-1.236
					c-4.149-0.405-7.858,2.639-8.265,6.787l-6.982,71.186c-0.406,4.148,2.638,7.857,6.789,8.264l3.975,0.391l-0.3,3.054
					c-0.187,1.924,1.228,3.642,3.151,3.831c1.926,0.189,3.646-1.223,3.832-3.146l0.3-3.054l28.355,2.779l-0.3,3.055
					c-0.188,1.924,1.227,3.643,3.152,3.831c1.932,0.189,3.651-1.223,3.838-3.146l0.299-3.055l3.977,0.39
					c4.15,0.406,7.857-2.633,8.267-6.788l6.979-71.184C185.124,981.658,182.086,977.949,177.936,977.544z M146.197,962.387
					l15.543,1.523c1.263,0.124,2.193,1.248,2.086,2.51c-0.651-0.426-1.409-0.727-2.252-0.809l-15.544-1.524
					c-0.846-0.083-1.647,0.063-2.372,0.354C143.801,963.182,144.932,962.264,146.197,962.387z M142.961,971.518l0.316-3.215
					c0.107-1.079,1.255-1.885,2.514-1.763l15.543,1.523c1.258,0.123,2.225,1.14,2.117,2.218l-0.313,3.215l-0.256,2.57l-20.172-1.979
					L142.961,971.518z M127.415,1062.729c-0.059,0.577-0.571,0.999-1.142,0.94c-0.578-0.055-1-0.565-0.943-1.144l0.302-3.052
					l2.075,0.205L127.415,1062.729L127.415,1062.729z M162.749,1066.195c-0.056,0.578-0.567,0.998-1.144,0.942
					c-0.576-0.058-0.999-0.57-0.941-1.147l0.298-3.049l2.076,0.203l-0.299,3.051H162.749L162.749,1066.195z M175.287,1056.75
					c-0.273,2.795-2.779,4.848-5.572,4.574l-50.27-4.93c-2.797-0.274-4.851-2.773-4.578-5.57l6.983-71.184
					c0.274-2.798,2.775-4.85,5.57-4.575l50.274,4.931c2.795,0.274,4.852,2.772,4.576,5.569l-6.98,71.186L175.287,1056.75
					L175.287,1056.75z"/>
			</g>
		</g>
		<path fill="#294A8F" d="M171.44,1052.008c-0.301,3.052-3.263,5.256-6.62,4.926l-40.238-3.945c-3.357-0.33-5.838-3.068-5.534-6.119
			l5.438-55.475c0.299-3.051,3.264-5.256,6.618-4.924l40.241,3.942c3.357,0.331,5.834,3.069,5.537,6.12L171.44,1052.008z
			 M175.105,995.886c0.176-1.786-1.379-3.399-3.473-3.603l-40.721-3.994c-2.091-0.205-3.928,1.074-4.104,2.859l-5.443,55.504
			c-0.174,1.784,1.379,3.396,3.469,3.6l40.725,3.996c2.09,0.204,3.93-1.076,4.104-2.859L175.105,995.886z"/>
		<path fill="#294A8F" d="M155.381,998.51l-10.604-1.041c-1.105-0.107-1.912-1.142-1.805-2.246c0.109-1.107,1.103-1.963,2.207-1.854
			l10.604,1.038c1.107,0.11,1.912,1.143,1.808,2.247C157.479,997.761,156.486,998.617,155.381,998.51z M145.002,995.191
			c-0.316-0.031-0.566-0.145-0.595,0.173c-0.03,0.315,0.233,0.251,0.552,0.282l10.6,1.039c0.318,0.032,0.566,0.146,0.596-0.172
			c0.032-0.316-0.232-0.252-0.55-0.281L145.002,995.191z"/>
	</g>
	<g>
		<line fill="#294A8F" x1="128.045" y1="1016.068" x2="169.508" y2="1020.137"/>
		<path fill="#294A8F" d="M127.957,1016.979c0,0,15.692,1.541,23.641,2.319c5.85,0.573,11.897,1.167,17.82,1.748
			c0.91,0.088,1.09-1.732,0.18-1.823c-8.201-0.804-16.176-1.588-24.124-2.365c-5.851-0.572-11.87-1.164-17.34-1.701
			C127.223,1015.067,127.045,1016.89,127.957,1016.979C127.957,1016.979,127.045,1016.89,127.957,1016.979z"/>
	</g>
</g>
<g opacity="0.75">
	<path fill="#294A8F" d="M276.209,986.385c0.896,1.233,4.4-1.025,5.299-1.412c3.684-1.58,7.368-3.162,11.051-4.744
		c9.802-4.208,19.602-8.416,29.402-12.623c5.993-2.574,11.982-5.147,17.979-7.72c1.521-0.653-2.215-8.641-2.676-9.716
		c-13.595-31.662-27.189-63.323-40.784-94.986c-0.772-1.799-10.301,4.039-11.632,4.612c-9.549,4.098-19.092,8.196-28.641,12.296
		c-7.433,3.189-14.865,6.381-22.297,9.573c-0.889,0.382-2.525,0.083-2.018,1.253c0.714,1.67,1.434,3.342,2.149,5.014
		c13.857,32.274,27.718,64.552,41.575,96.828c0.283,0.66,0.586,1.365,0.996,2.316c0.406,0.949-2.443,2.174-2.85,1.223
		c-13.051-30.396-26.267-61.174-39.326-91.59c-1.846-4.299-3.691-8.598-5.537-12.898c-2.128-4.949,6.365-6.104,9.487-7.441
		c17.4-7.474,34.808-14.946,52.211-22.419c1.337-0.574,3.632-2.454,5.179-2.245c2.338,0.313,3.132,1.276,3.941,3.162
		c2.377,5.531,4.749,11.063,7.121,16.592c8.222,19.147,16.443,38.293,24.666,57.439c3.203,7.467,6.412,14.933,9.617,22.399
		c1.314,3.06,5.039,9.292,0.225,11.356c-15.131,6.497-30.26,12.994-45.392,19.488c-4.62,1.986-9.243,3.972-13.864,5.955
		c-2.773,1.191-6.191,3.463-8.516,0.268C272.316,986.637,274.949,984.652,276.209,986.385z"/>
	<path fill="#294A8F" d="M283.585,859.212c0,0,25.878,60.265,38.823,90.421c2.191,5.102,4.408,10.263,6.445,15.013
		c0.816,1.897-2.033,3.124-2.85,1.224c-12.645-29.446-25.772-60.025-38.719-90.179c-2.19-5.103-4.104-9.556-6.548-15.255
		C279.916,858.535,282.771,857.313,283.585,859.212C283.585,859.212,282.771,857.313,283.585,859.212z"/>
	<path fill="#294A8F" d="M244.642,875.932c0,0,25.827,60.154,38.788,90.342c2.029,4.719,4.035,9.394,6.074,14.142
		c0.816,1.901-2.037,3.124-2.852,1.226c-13.049-30.397-25.916-60.363-38.879-90.553c-2.027-4.718-3.943-9.182-5.98-13.932
		C240.976,875.256,243.824,874.034,244.642,875.932C244.642,875.932,243.824,874.034,244.642,875.932z"/>
	<path fill="#294A8F" d="M267.561,848.092c0,0,4.078,9.499,6.117,14.249c0.816,1.899-2.033,3.122-2.848,1.224
		c-2.041-4.75-4.488-10.45-6.119-14.248C263.489,846.465,266.338,845.242,267.561,848.092
		C267.561,848.092,266.338,845.242,267.561,848.092z"/>
	<path fill="#294A8F" d="M247.615,856.656c0,0,4.078,9.498,5.709,13.299c0.814,1.899-2.035,3.123-2.85,1.223
		c-1.633-3.801-4.079-9.496-5.711-13.298C243.538,855.031,246.39,853.806,247.615,856.656
		C247.615,856.656,246.39,853.806,247.615,856.656z"/>
	<g>
		<path fill="#294A8F" d="M322.506,965.576c-0.094-0.213-0.589-0.203-1.109,0.021l-26.611,11.425
			c-0.518,0.222-0.867,0.575-0.776,0.791l2.526,5.877c0.09,0.212,0.586,0.205,1.107-0.019l26.607-11.427
			c0.521-0.222,0.868-0.577,0.777-0.789L322.506,965.576z"/>
		<path fill="#294A8F" d="M323.95,971.557c0.163,0.383-0.264,0.933-0.954,1.229l-26,11.163c-0.689,0.296-1.38,0.226-1.544-0.154
			l-2.669-6.218c-0.166-0.383,0.26-0.932,0.951-1.228l25.998-11.162c0.689-0.296,1.385-0.228,1.547,0.153L323.95,971.557z
			 M321.447,965.734c-0.033-0.074-0.344-0.012-0.693,0.139l-26.271,11.279c-0.353,0.151-0.611,0.335-0.58,0.41l2.737,6.379
			c0.035,0.075,0.345,0.012,0.696-0.139l26.27-11.281c0.354-0.15,0.612-0.332,0.581-0.407L321.447,965.734z"/>
	</g>
	<g>
		<path fill="#294A8F" d="M333.229,964.35c-0.093-0.213-0.233-0.357-0.317-0.322l-4.445,1.909c-0.085,0.036-0.079,0.238,0.011,0.453
			l2.525,5.875c0.09,0.214,0.232,0.359,0.318,0.321l4.445-1.908c0.082-0.037,0.076-0.238-0.014-0.453L333.229,964.35z"/>
		<path fill="#294A8F" d="M335.619,969.92c0.164,0.381,0.09,0.779-0.16,0.888l-4.783,2.055c-0.254,0.108-0.589-0.112-0.755-0.495
			l-2.669-6.215c-0.166-0.383-0.094-0.78,0.162-0.889l4.781-2.053c0.253-0.109,0.592,0.113,0.754,0.494L335.619,969.92z
			 M333.096,964.045c-0.02-0.045-0.035-0.081-0.038-0.08L328.316,966c-0.003,0.001,0.011,0.039,0.031,0.082l2.783,6.489
			c0.02,0.044,0.04,0.079,0.04,0.077l4.741-2.035c0.002,0-0.011-0.037-0.033-0.084L333.096,964.045z"/>
	</g>
	<g>
		<path fill="#294A8F" d="M288.584,983.518c-0.091-0.213-0.234-0.357-0.32-0.32l-4.439,1.906c-0.086,0.037-0.08,0.239,0.01,0.453
			l2.522,5.875c0.093,0.217,0.236,0.358,0.321,0.322l4.441-1.907c0.084-0.038,0.08-0.24-0.012-0.453L288.584,983.518z"/>
		<path fill="#294A8F" d="M290.975,989.088c0.166,0.381,0.094,0.779-0.162,0.89l-4.777,2.052c-0.254,0.109-0.594-0.11-0.758-0.492
			l-2.668-6.217c-0.164-0.383-0.092-0.781,0.161-0.89l4.782-2.052c0.252-0.109,0.592,0.112,0.752,0.494L290.975,989.088z
			 M288.453,983.213c-0.02-0.045-0.037-0.081-0.039-0.08l-4.74,2.035c-0.003,0.002,0.01,0.037,0.031,0.083l2.784,6.488
			c0.02,0.044,0.038,0.079,0.038,0.077l4.741-2.036c0.003,0.001-0.012-0.035-0.029-0.08L288.453,983.213z"/>
	</g>
	<path fill="#294A8F" d="M265.215,884.514c1.15,1.92,3.977-0.021,5.464-0.659c1.472-0.632,4.558-1.27,3.188-3.562
		c-0.795-1.33-4.205,0.916-5.104,1.303c-1.328,0.569-4.127,1.499-3.311,3.4c0.41,0.949-1.116,1.603-1.525,0.654
		c-1.632-3.8,1.461-4.413,3.787-5.412c2.379-1.023,5.926-3.51,7.777-0.413c1.854,3.093-1.508,4.462-3.748,5.422
		c-2.38,1.022-5.967,3.417-7.818,0.321C263.383,884.663,264.668,883.597,265.215,884.514z"/>
	<path fill="#294A8F" d="M267.836,848.024c0.188,0.403-0.303-0.245-1.182-0.419c-3.322-0.65-7.111,1.092-10.068,2.34
		c-4.082,1.719-10.955,3.568-11.082,8.941c-0.052,2.139-3.348,1.715-3.297-0.41c0.176-7.408,9.417-10.166,15.086-12.41
		c3.231-1.277,11.427-4.017,13.595,0.646C271.791,848.656,268.738,849.962,267.836,848.024L267.836,848.024z"/>
</g>
<g opacity="0.9">
	<path fill="#294A8F" d="M143.547,863.227c-2.014,12.93-15.637,21.545-30.424,19.24l-100.76-15.688
		c-14.789-2.304-25.146-14.651-23.133-27.581l5.938-38.128c2.014-12.928,15.634-21.543,30.423-19.239l100.762,15.69
		c14.786,2.302,25.144,14.649,23.131,27.58L143.547,863.227z M145.988,824.4c1.742-11.182-7.419-21.889-20.457-23.92L24.969,784.82
		c-13.038-2.029-25.02,5.386-26.762,16.566l-5.905,37.93c-1.742,11.18,7.417,21.889,20.458,23.919l100.561,15.659
		c13.04,2.031,25.021-5.387,26.762-16.566L145.988,824.4z"/>
	<g>
		<path fill="#294A8F" d="M109.088,796.568c0.006-0.073,0.514-7.66-2.912-15.652c-4.516-10.523-13.425-16.945-26.506-18.982
			l-0.547-0.086c-13.078-2.035-23.518,1.371-31.019,10.018c-5.696,6.57-7.511,13.92-7.53,13.993l-3.48-0.763
			c0.078-0.324,1.957-7.979,8.096-15.103c5.732-6.657,16.353-13.972,34.404-11.159l0.549,0.084
			c18.052,2.811,25.943,13.021,29.38,21.107c3.678,8.658,3.137,16.543,3.112,16.874L109.088,796.568z"/>
	</g>
	<path fill="#294A8F" d="M127.398,837.986c-0.465,2.977-3.25,5.012-6.227,4.549l-103.83-16.17c-2.98-0.465-5.014-3.25-4.549-6.224
		l5.21-33.462c0.463-2.975,3.25-5.012,6.225-4.549l103.832,16.17c2.978,0.463,5.013,3.25,4.55,6.227L127.398,837.986z
		 M129.539,804.406c0.188-1.226-0.648-2.372-1.875-2.563L24.03,785.705c-1.226-0.19-2.373,0.648-2.564,1.871l-5.256,33.766
		c-0.19,1.227,0.646,2.373,1.871,2.564l103.635,16.139c1.226,0.189,2.373-0.647,2.563-1.873L129.539,804.406z"/>
	<path fill="#294A8F" d="M77.67,839.928c-0.428,2.75-3.188,4.604-6.162,4.139l-7.826-1.217c-2.972-0.463-5.037-3.069-4.609-5.818
		l0.171-1.1c0.429-2.75,3.188-4.604,6.162-4.141l7.825,1.219c2.977,0.463,5.04,3.068,4.611,5.818L77.67,839.928z M74.346,838.127
		c0.157-1-0.711-1.966-1.934-2.156l-7.629-1.189c-1.225-0.189-2.344,0.468-2.5,1.468l-0.141,0.901
		c-0.156,1.001,0.711,1.966,1.937,2.156l7.627,1.189c1.225,0.189,2.345-0.467,2.5-1.467L74.346,838.127z"/>
</g>
<g>
	<g>
		<g>
			<g>
				<path fill="#A8E0FF" d="M383.426,1035.452l-5.818,4.694l-0.956-1.188l-1.198-1.485l-1.427-1.766
					c-0.978-1.216-2.764-1.404-3.977-0.427l-7.175,5.791c-1.213,0.979-1.404,2.764-0.427,3.978l1.426,1.77l1.199,1.482l0.957,1.187
					l-5.814,4.691c-1.915,1.547-2.218,4.363-0.672,6.279l26.519,32.863c1.547,1.914,4.363,2.217,6.279,0.669l1.835-1.479l1.138,1.41
					c0.717,0.887,2.023,1.025,2.912,0.309s1.029-2.024,0.313-2.91l-1.139-1.41l13.091-10.564l1.138,1.41
					c0.717,0.889,2.023,1.026,2.914,0.309c0.891-0.72,1.029-2.025,0.313-2.913l-1.138-1.409l1.835-1.481
					c1.916-1.548,2.219-4.36,0.672-6.28l-26.519-32.861C388.154,1034.209,385.34,1033.906,383.426,1035.452z M363.789,1042.205
					l7.174-5.791c0.584-0.471,1.44-0.382,1.918,0.193c-0.451,0.09-0.895,0.277-1.283,0.592l-7.176,5.79
					c-0.391,0.315-0.668,0.709-0.852,1.132C363.108,1043.531,363.203,1042.677,363.789,1042.205z M366.205,1047.388l-1.198-1.483
					c-0.401-0.5-0.252-1.313,0.329-1.782l7.176-5.791c0.58-0.47,1.408-0.44,1.809,0.058l1.199,1.482l0.955,1.188l-9.313,7.515
					L366.205,1047.388z M397.405,1092.229c0.214,0.268,0.173,0.656-0.093,0.869c-0.266,0.216-0.654,0.176-0.869-0.092l-1.137-1.41
					l0.959-0.772L397.405,1092.229L397.405,1092.229z M413.717,1079.065c0.216,0.267,0.176,0.655-0.091,0.87
					s-0.657,0.174-0.871-0.094l-1.137-1.407l0.958-0.772l1.137,1.408L413.717,1079.065L413.717,1079.065z M415.088,1069.899
					c1.041,1.29,0.836,3.191-0.453,4.231l-23.207,18.729c-1.291,1.042-3.19,0.84-4.232-0.451l-26.518-32.863
					c-1.043-1.291-0.84-3.189,0.451-4.23l23.209-18.73c1.291-1.041,3.191-0.84,4.232,0.451l26.52,32.863L415.088,1069.899
					L415.088,1069.899z"/>
			</g>
		</g>
		<path fill="#A8E0FF" d="M411.506,1069.494c1.137,1.41,0.801,3.564-0.75,4.814l-18.574,14.991c-1.551,1.25-3.729,1.124-4.863-0.286
			l-20.668-25.609c-1.136-1.408-0.8-3.564,0.75-4.813l18.576-14.993c1.551-1.25,3.726-1.121,4.863,0.286L411.506,1069.494z
			 M389.823,1044.348c-0.664-0.826-1.987-0.861-2.952-0.08l-18.8,15.169c-0.966,0.779-1.209,2.079-0.544,2.903l20.678,25.622
			c0.664,0.824,1.985,0.86,2.949,0.081l18.802-15.171c0.965-0.778,1.21-2.079,0.545-2.902L389.823,1044.348z"/>
		<path fill="#A8E0FF" d="M382.604,1053.614l-4.895,3.95c-0.51,0.412-1.277,0.311-1.689-0.199c-0.412-0.511-0.349-1.283,0.162-1.693
			l4.895-3.951c0.512-0.412,1.277-0.311,1.691,0.198C383.178,1052.432,383.114,1053.203,382.604,1053.614z M376.86,1056.512
			c-0.146,0.119-0.298,0.174-0.179,0.319c0.118,0.146,0.202,0.01,0.35-0.109l4.894-3.949c0.147-0.118,0.298-0.173,0.18-0.318
			c-0.118-0.146-0.202-0.011-0.349,0.108L376.86,1056.512z"/>
	</g>
	<g>
		<line fill="#A8E0FF" x1="378.36" y1="1072.32" x2="397.502" y2="1056.875"/>
		<path fill="#A8E0FF" d="M378.699,1072.74c0,0,7.246-5.846,10.914-8.807c2.701-2.18,5.494-4.433,8.229-6.639
			c0.419-0.34-0.259-1.181-0.68-0.842c-3.786,3.056-7.467,6.025-11.137,8.986c-2.7,2.18-5.48,4.423-8.005,6.46
			C377.6,1072.24,378.279,1073.08,378.699,1072.74C378.699,1072.74,378.279,1073.08,378.699,1072.74z"/>
	</g>
</g>
<g>
	<path fill="#A8E0FF" d="M363.209,769.002c-0.369,0.756,1.639,1.881,2.059,2.22c1.725,1.388,3.45,2.776,5.175,4.163
		c4.589,3.692,9.177,7.384,13.765,11.076c2.807,2.258,5.611,4.514,8.418,6.771c0.713,0.574,3.643-3.315,4.048-3.818
		c11.927-14.824,23.853-29.648,35.781-44.473c0.678-0.842-4.636-3.979-5.261-4.48c-4.469-3.598-8.938-7.192-13.408-10.789
		c-3.479-2.801-6.959-5.601-10.439-8.399c-0.415-0.335-0.693-1.211-1.132-0.66c-0.63,0.78-1.261,1.563-1.89,2.346
		c-12.158,15.11-24.316,30.224-36.475,45.335c-0.25,0.309-0.515,0.639-0.873,1.086c-0.357,0.443-1.693-0.63-1.334-1.074
		c11.45-14.231,23.045-28.643,34.502-42.883c1.619-2.013,3.239-4.025,4.859-6.038c1.863-2.319,4.623,1.525,6.084,2.702
		c8.148,6.555,16.299,13.111,24.447,19.668c0.625,0.504,2.135,1.137,2.434,1.945c0.452,1.221,0.188,1.857-0.522,2.74
		c-2.083,2.591-4.167,5.18-6.251,7.768c-7.213,8.965-14.424,17.93-21.637,26.895c-2.813,3.494-5.625,6.992-8.438,10.486
		c-1.152,1.434-3.229,4.863-5.482,3.049c-7.084-5.7-14.167-11.398-21.251-17.1c-2.165-1.74-4.329-3.481-6.491-5.223
		c-1.301-1.045-3.291-2.123-2.335-4.084C362.078,767.169,363.728,767.939,363.209,769.002z"/>
	<path fill="#A8E0FF" d="M427.152,739.693c0,0-22.701,28.217-34.061,42.336c-1.923,2.388-3.866,4.805-5.657,7.027
		c-0.714,0.89-2.049-0.184-1.333-1.073c11.092-13.787,22.61-28.103,33.971-42.221c1.922-2.389,3.599-4.474,5.746-7.142
		C426.533,737.729,427.867,738.805,427.152,739.693C427.152,739.693,427.867,738.805,427.152,739.693z"/>
	<path fill="#A8E0FF" d="M408.921,725.023c0,0-22.662,28.164-34.033,42.297c-1.776,2.211-3.538,4.398-5.326,6.622
		c-0.717,0.891-2.052-0.185-1.337-1.073c11.453-14.23,22.74-28.262,34.112-42.396c1.776-2.21,3.458-4.299,5.249-6.521
		C408.303,723.061,409.635,724.133,408.921,725.023C408.921,725.023,409.635,724.133,408.921,725.023z"/>
	<path fill="#A8E0FF" d="M428.432,729c0,0-3.58,4.447-5.369,6.671c-0.715,0.89-2.049-0.185-1.334-1.073
		c1.789-2.225,3.936-4.893,5.367-6.671C428.17,726.593,429.505,727.666,428.432,729C428.432,729,429.505,727.666,428.432,729z"/>
	<path fill="#A8E0FF" d="M419.092,721.486c0,0-3.578,4.447-5.01,6.227c-0.716,0.889-2.051-0.186-1.334-1.074
		c1.432-1.779,3.577-4.447,5.01-6.227C418.83,719.077,420.165,720.15,419.092,721.486
		C419.092,721.486,420.165,720.15,419.092,721.486z"/>
	<g>
		<path fill="#A8E0FF" d="M385.339,786.201c0.08-0.101-0.054-0.34-0.298-0.535l-12.459-10.025c-0.242-0.195-0.504-0.273-0.586-0.174
			l-2.213,2.754c-0.081,0.098,0.051,0.338,0.295,0.534l12.459,10.022c0.244,0.197,0.506,0.274,0.586,0.176L385.339,786.201z"/>
		<path fill="#A8E0FF" d="M382.795,788.453c-0.145,0.179-0.523,0.113-0.847-0.146l-12.171-9.795
			c-0.324-0.26-0.468-0.615-0.326-0.793l2.344-2.911c0.144-0.18,0.521-0.114,0.844,0.146l12.173,9.794
			c0.322,0.26,0.47,0.616,0.325,0.794L382.795,788.453z M384.988,785.726c0.027-0.035-0.084-0.17-0.247-0.302l-12.3-9.896
			c-0.166-0.133-0.322-0.212-0.351-0.178l-2.404,2.986c-0.026,0.036,0.084,0.171,0.249,0.304l12.299,9.896
			c0.166,0.134,0.322,0.213,0.35,0.178L384.988,785.726z"/>
	</g>
	<g>
		<path fill="#A8E0FF" d="M388.712,791.115c0.08-0.102,0.112-0.207,0.075-0.239l-2.082-1.675c-0.041-0.031-0.137,0.023-0.218,0.123
			l-2.214,2.752c-0.08,0.1-0.115,0.207-0.074,0.238l2.082,1.675c0.039,0.03,0.136-0.024,0.217-0.124L388.712,791.115z"/>
		<path fill="#A8E0FF" d="M386.613,793.723c-0.143,0.178-0.357,0.245-0.475,0.15l-2.24-1.801c-0.119-0.096-0.098-0.316,0.046-0.496
			l2.342-2.91c0.144-0.181,0.356-0.248,0.476-0.15l2.238,1.801c0.119,0.095,0.098,0.318-0.047,0.495L386.613,793.723z
			 M388.826,790.971c0.016-0.021,0.029-0.038,0.028-0.039l-2.22-1.786c-0.002-0.001-0.016,0.015-0.031,0.036l-2.445,3.037
			c-0.017,0.021-0.029,0.04-0.027,0.039l2.219,1.787c0.002,0,0.016-0.016,0.033-0.039L388.826,790.971z"/>
	</g>
	<g>
		<path fill="#A8E0FF" d="M367.81,774.297c0.08-0.1,0.114-0.207,0.073-0.239l-2.078-1.673c-0.041-0.031-0.138,0.023-0.219,0.123
			l-2.214,2.75c-0.081,0.102-0.114,0.208-0.073,0.24l2.08,1.673c0.039,0.031,0.137-0.023,0.217-0.123L367.81,774.297z"/>
		<path fill="#A8E0FF" d="M365.711,776.904c-0.143,0.18-0.357,0.247-0.477,0.15l-2.236-1.799c-0.119-0.096-0.1-0.318,0.045-0.497
			l2.342-2.91c0.145-0.179,0.357-0.247,0.475-0.151l2.238,1.802c0.119,0.095,0.099,0.317-0.047,0.495L365.711,776.904z
			 M367.924,774.154c0.018-0.021,0.031-0.039,0.03-0.041l-2.22-1.785c-0.002-0.001-0.018,0.015-0.033,0.037l-2.444,3.037
			c-0.016,0.021-0.03,0.039-0.028,0.038l2.221,1.786c0,0.002,0.014-0.015,0.031-0.035L367.924,774.154z"/>
	</g>
	<path fill="#A8E0FF" d="M410.057,737.279c-0.639,1.059,1.039,1.935,1.736,2.495c0.688,0.554,1.798,1.895,2.563,0.634
		c0.441-0.732-1.535-1.814-1.957-2.152c-0.621-0.5-1.799-1.625-2.516-0.735c-0.355,0.446-1.07-0.13-0.713-0.575
		c1.432-1.778,2.529-0.429,3.619,0.447c1.115,0.896,3.245,1.982,2.214,3.688c-1.028,1.704-2.565,0.419-3.614-0.426
		c-1.114-0.896-3.212-2.026-2.18-3.73C409.51,736.425,410.363,736.775,410.057,737.279z"/>
	<path fill="#A8E0FF" d="M428.535,729.117c-0.148,0.195,0.04-0.212-0.102-0.686c-0.543-1.789-2.373-3.187-3.746-4.307
		c-1.896-1.545-4.577-4.42-7.23-3.092c-1.057,0.529-1.701-1.188-0.652-1.714c3.659-1.831,7.396,1.963,9.957,4.147
		c1.459,1.246,4.916,4.535,3.202,6.799C429.25,731.209,427.822,730.059,428.535,729.117L428.535,729.117z"/>
</g>
<g>
	<g>
		<g>
			<g>
				<path fill="#A8E0FF" d="M369.489,352.564L363.735,352l0.116-1.174l0.145-1.469l0.17-1.748c0.119-1.2-0.764-2.272-1.963-2.391
					l-7.098-0.695c-1.2-0.118-2.273,0.762-2.393,1.963l-0.172,1.748l-0.143,1.469l-0.115,1.174l-5.752-0.564
					c-1.895-0.186-3.588,1.205-3.773,3.1l-3.189,32.507c-0.186,1.895,1.205,3.589,3.101,3.774l1.815,0.178l-0.137,1.395
					c-0.086,0.879,0.561,1.664,1.438,1.75c0.88,0.086,1.665-0.559,1.75-1.437l0.138-1.396l12.948,1.271l-0.137,1.395
					c-0.086,0.878,0.56,1.663,1.439,1.749c0.882,0.087,1.667-0.559,1.753-1.436l0.137-1.396l1.815,0.179
					c1.896,0.186,3.588-1.203,3.774-3.101l3.188-32.507C372.771,354.443,371.385,352.75,369.489,352.564z M354.996,345.643
					l7.098,0.696c0.576,0.056,1.001,0.569,0.952,1.146c-0.298-0.194-0.644-0.331-1.028-0.369l-7.099-0.695
					c-0.386-0.039-0.752,0.028-1.083,0.161C353.9,346.006,354.418,345.586,354.996,345.643z M353.518,349.813l0.145-1.468
					c0.049-0.493,0.572-0.861,1.148-0.806l7.098,0.696c0.574,0.056,1.016,0.521,0.967,1.013l-0.143,1.469l-0.117,1.173l-9.212-0.903
					L353.518,349.813z M346.418,391.466c-0.026,0.264-0.261,0.456-0.521,0.429c-0.264-0.024-0.456-0.258-0.43-0.521l0.137-1.394
					l0.948,0.093L346.418,391.466L346.418,391.466z M362.555,393.049c-0.025,0.264-0.26,0.455-0.523,0.43
					c-0.263-0.025-0.455-0.26-0.43-0.523l0.137-1.393l0.947,0.093l-0.137,1.394H362.555L362.555,393.049z M368.279,388.734
					c-0.125,1.277-1.27,2.215-2.545,2.09l-22.955-2.252c-1.277-0.125-2.215-1.266-2.092-2.543l3.189-32.507
					c0.125-1.278,1.268-2.215,2.544-2.09l22.958,2.251c1.277,0.126,2.216,1.268,2.09,2.544l-3.188,32.508L368.279,388.734
					L368.279,388.734z"/>
			</g>
		</g>
		<path fill="#A8E0FF" d="M366.523,386.569c-0.138,1.394-1.49,2.4-3.023,2.249l-18.375-1.801c-1.533-0.15-2.666-1.401-2.527-2.795
			l2.483-25.333c0.136-1.394,1.49-2.4,3.022-2.249l18.377,1.801c1.533,0.151,2.664,1.402,2.527,2.795L366.523,386.569z
			 M368.197,360.94c0.08-0.815-0.631-1.552-1.586-1.645l-18.596-1.825c-0.955-0.094-1.794,0.491-1.875,1.307l-2.484,25.347
			c-0.08,0.814,0.629,1.551,1.584,1.644l18.597,1.824c0.954,0.094,1.794-0.49,1.874-1.305L368.197,360.94z"/>
		<path fill="#A8E0FF" d="M359.189,362.139l-4.842-0.475c-0.506-0.049-0.874-0.521-0.824-1.026c0.049-0.505,0.503-0.896,1.008-0.847
			l4.842,0.475c0.506,0.051,0.873,0.521,0.825,1.026C360.146,361.797,359.693,362.188,359.189,362.139z M354.449,360.623
			c-0.145-0.014-0.258-0.065-0.271,0.08c-0.014,0.143,0.107,0.113,0.252,0.129l4.841,0.474c0.146,0.015,0.259,0.066,0.272-0.078
			s-0.106-0.115-0.252-0.128L354.449,360.623z"/>
	</g>
	<g>
		<line fill="#A8E0FF" x1="346.706" y1="370.157" x2="365.641" y2="372.016"/>
		<path fill="#A8E0FF" d="M346.666,370.572c0,0,7.166,0.705,10.795,1.06c2.672,0.263,5.434,0.533,8.139,0.798
			c0.416,0.041,0.498-0.791,0.082-0.832c-3.745-0.367-7.387-0.725-11.017-1.08c-2.672-0.262-5.421-0.531-7.919-0.777
			C346.33,369.7,346.25,370.532,346.666,370.572C346.666,370.572,346.25,370.532,346.666,370.572z"/>
	</g>
</g>
<g>
	<path fill="#A8E0FF" d="M163.219,212.906c-3.795,4.614-11.153,4.836-16.431,0.494l-35.966-29.581
		c-5.279-4.343-6.48-11.603-2.685-16.218l11.194-13.608c3.795-4.615,11.15-4.837,16.43-0.495l35.966,29.582
		c5.278,4.34,6.48,11.602,2.685,16.217L163.219,212.906z M173.201,198.209c3.283-3.99,2.17-10.328-2.484-14.156l-35.895-29.524
		c-4.654-3.827-11.088-3.696-14.371,0.293l-11.135,13.54c-3.282,3.989-2.169,10.328,2.485,14.156l35.894,29.523
		c4.654,3.828,11.088,3.696,14.37-0.294L173.201,198.209z"/>
	<g>
		<path fill="#A8E0FF" d="M165.162,178.694c0.02-0.028,1.98-2.892,2.492-6.831c0.67-5.186-1.34-9.78-6.01-13.621l-0.195-0.161
			c-4.668-3.839-9.563-4.925-14.521-3.269c-3.766,1.259-6.187,3.727-6.212,3.751l-1.19-1.108c0.105-0.109,2.623-2.682,6.691-4.057
			c3.801-1.285,9.676-1.693,16.119,3.607l0.195,0.161c6.443,5.299,7.174,11.146,6.646,15.124c-0.565,4.259-2.61,7.232-2.697,7.357
			L165.162,178.694z"/>
	</g>
	<path fill="#A8E0FF" d="M162.736,199.231c-0.875,1.062-2.442,1.215-3.505,0.341l-37.062-30.483
		c-1.064-0.875-1.215-2.442-0.342-3.504l9.824-11.943c0.873-1.063,2.442-1.215,3.504-0.342l37.061,30.484
		c1.064,0.874,1.215,2.442,0.342,3.505L162.736,199.231z M171.38,186.527c0.358-0.438,0.296-1.084-0.141-1.443l-36.991-30.426
		c-0.438-0.359-1.084-0.296-1.443,0.141l-9.912,12.052c-0.359,0.438-0.297,1.083,0.141,1.442l36.99,30.427
		c0.438,0.358,1.084,0.297,1.443-0.142L171.38,186.527z"/>
	<path fill="#A8E0FF" d="M142.735,188.439c-0.808,0.98-2.323,1.068-3.384,0.195l-2.795-2.297c-1.061-0.873-1.267-2.378-0.46-3.359
		l0.323-0.393c0.808-0.981,2.324-1.068,3.385-0.195l2.793,2.297c1.063,0.874,1.268,2.378,0.461,3.359L142.735,188.439z
		 M141.847,186.958c0.294-0.356,0.177-0.938-0.26-1.296l-2.722-2.24c-0.438-0.359-1.03-0.361-1.324-0.005l-0.265,0.322
		c-0.294,0.356-0.178,0.938,0.261,1.298l2.721,2.239c0.438,0.358,1.031,0.362,1.324,0.005L141.847,186.958z"/>
</g>
<rect x="-2" y="1" fill="none" width="1922" height="1083"/>
<line fill="#294A8F" stroke="#364A8F" stroke-width="4" stroke-miterlimit="10" x1="1362.616" y1="406.707" x2="1251.496" y2="416.02"/>
<g>
	
		<radialGradient id="SVGID_1_" cx="934.4492" cy="-44.0645" r="433.7799" gradientTransform="matrix(1.0511 0 0 1.2485 -22.2004 529.5137)" gradientUnits="userSpaceOnUse">
		<stop  offset="0" style="stop-color:#FFFFFF"/>
		<stop  offset="0.5335" style="stop-color:#FDFEFF;stop-opacity:0.4478"/>
		<stop  offset="0.7256" style="stop-color:#F6FBFF;stop-opacity:0.2489"/>
		<stop  offset="0.8621" style="stop-color:#EBF5FF;stop-opacity:0.1076"/>
		<stop  offset="0.9661" style="stop-color:#DBEDFF;stop-opacity:0"/>
	</radialGradient>
	<rect x="441" y="20" fill="url(#SVGID_1_)" width="1038" height="909"/>
	
		<radialGradient id="SVGID_2_" cx="933.0225" cy="-44.8652" r="433.5093" gradientTransform="matrix(1.0511 0 0 1.2485 -22.2004 529.5137)" gradientUnits="userSpaceOnUse">
		<stop  offset="0" style="stop-color:#FFFFFF"/>
		<stop  offset="0.718" style="stop-color:#FFFFFF;stop-opacity:0.1413"/>
		<stop  offset="0.8362" style="stop-color:#FFFFFF;stop-opacity:0"/>
	</radialGradient>
	<rect x="440" y="19" fill="url(#SVGID_2_)" width="1037" height="909"/>
	<g>
		<linearGradient id="SVGID_3_" gradientUnits="userSpaceOnUse" x1="931.4639" y1="229.6187" x2="1005.6699" y2="229.6187">
			<stop  offset="0.2712" style="stop-color:#AD2645"/>
			<stop  offset="0.7966" style="stop-color:#C43052"/>
		</linearGradient>
		<path fill="url(#SVGID_3_)" d="M968.566,219.379c-3.792,0-37.103,0.342-37.103,12.135v8.344h7.584l0,0h2.183v-7.234
			c1.789-1.7,11.304-4.703,27.336-4.703c16.035,0,25.544,3.003,27.336,4.703v7.234h2.179l0,0h7.589v-8.344
			C1005.67,219.721,972.363,219.379,968.566,219.379z"/>
		<linearGradient id="SVGID_4_" gradientUnits="userSpaceOnUse" x1="877.5103" y1="409.3867" x2="915.2144" y2="409.3867">
			<stop  offset="0.2712" style="stop-color:#AD2645"/>
			<stop  offset="0.7966" style="stop-color:#C43052"/>
		</linearGradient>
		<path fill="url(#SVGID_4_)" d="M915.214,284.054L915.214,284.054L915.214,284.054c0,0-0.344,0.941-0.986,2.698
			c-0.613,1.767-1.562,4.35-2.646,7.665c-2.199,6.624-5.16,16.135-8.322,27.643c-3.168,11.505-6.55,25.008-9.72,39.576
			c-0.81,3.64-1.569,7.351-2.341,11.109c-0.755,3.759-1.535,7.565-2.237,11.417c-1.459,7.692-2.792,15.534-4.057,23.394
			c-1.214,7.864-2.366,15.746-3.309,23.533c-0.52,3.884-0.923,7.76-1.331,11.581c-0.412,3.822-0.767,7.61-1.088,11.336
			c-0.3,3.727-0.59,7.398-0.823,10.991c-0.197,3.598-0.402,7.121-0.552,10.546c-0.093,3.442-0.217,6.779-0.28,10.011
			c-0.002,3.236-0.007,6.364-0.013,9.365c0.08,3.003,0.159,5.885,0.234,8.622c0.156,2.74,0.298,5.336,0.461,7.771
			c0.421,4.878,0.817,9.112,1.383,12.585c0.267,1.738,0.464,3.282,0.743,4.622c0.271,1.335,0.504,2.473,0.692,3.393
			c0.398,1.827,0.612,2.802,0.612,2.802v0.005l0,0l0,0v-0.003l19.771-147.597c0.042-0.263,0.084-0.532,0.123-0.797
			c0.614-3.839,1.207-7.651,1.761-11.424c0.585-3.766,1.17-7.487,1.697-11.156c1.119-7.328,2.134-14.426,3.099-21.163
			c0.957-6.736,1.834-13.113,2.616-19.012c1.553-11.793,2.712-21.663,3.453-28.593c0.38-3.462,0.609-6.2,0.807-8.059
			C915.126,285.05,915.214,284.054,915.214,284.054L915.214,284.054z"/>
		<linearGradient id="SVGID_5_" gradientUnits="userSpaceOnUse" x1="838.2568" y1="424.3281" x2="1085.4707" y2="424.3281">
			<stop  offset="0.2712" style="stop-color:#AD2645"/>
			<stop  offset="0.7966" style="stop-color:#C43052"/>
		</linearGradient>
		<path fill="url(#SVGID_5_)" d="M1053.909,320.886c0-34.86-28.258-63.119-63.116-63.119h-22.791h-14.028h-21.04
			c-34.86,0-57.666,29.315-63.118,63.119c-7.709,47.808-31.559,191.107-31.559,191.107c0,28.769,19.268,52.992,45.587,60.599v8.654
			c0,5.326,4.314,9.643,9.64,9.643c5.327,0,9.648-4.316,9.648-9.643v-6.136h12.922c1.695,3.984,5.646,6.784,10.238,6.784h66.361
			c4.594,0,8.548-2.8,10.24-6.784h12.445v6.136c0,5.326,4.318,9.643,9.644,9.643s9.641-4.316,9.641-9.643v-7.351
			c28.985-5.713,50.848-31.245,50.848-61.902L1053.909,320.886z M1032.442,562.829l-5.82,1.147v-0.148h-11.283h-14.016
			c-2.041-2.538-5.166-4.172-8.67-4.172h-66.361c-3.502,0-6.628,1.634-8.667,4.172h-14.493h-8.972l-7.183-2.076
			c-10.583-3.055-20.113-9.581-26.835-18.376c-6.757-8.839-10.413-19.365-10.597-30.496c2.107-12.653,24.113-144.961,31.411-190.199
			c2.434-15.1,8.702-28.721,17.652-38.349c9.298-9.998,21.166-15.282,34.325-15.282h21.04h14.028h22.791
			c28.582,0,51.839,23.252,51.839,51.835v0.924l0.148,0.915l31.399,190.148C1073.771,537.186,1056.344,558.113,1032.442,562.829z"/>
		<linearGradient id="SVGID_6_" gradientUnits="userSpaceOnUse" x1="750.0601" y1="395.2051" x2="1084.9365" y2="395.2051">
			<stop  offset="0.2712" style="stop-color:#AD2645"/>
			<stop  offset="0.7966" style="stop-color:#C43052"/>
		</linearGradient>
		<path fill="url(#SVGID_6_)" d="M1000.966,255.454c-9.943,26.27-18.361,52.618-62.835,99.459
			c-29.065,30.612-70.276,54.664-127.094,50.505c-143.773-10.519,12.271,31.559,8.764,49.093
			c-3.504,17.532,54.349,10.518,47.338,28.051c-7.013,17.535,78.897,38.573,66.625,52.598
			c-6.519,7.447,118.925,1.081,150.483-42.984c2.593-3.62-2.806-28.762-4.954-45.584c-23.978-187.599-33.043-169.251-59.92-191.138
			C1015.637,252.408,1002.671,250.942,1000.966,255.454z"/>
		<path fill="#FFFFFF" d="M946.904,542.047h-0.003c-12.777,0-15.897-1.538-17.188-4.373c-0.794-1.752-0.464-3.785,0.865-5.299
			c0.067-0.075,0.111-0.136,0.138-0.177c-0.13-0.44-1.106-2.598-8.262-6.939c-5.703-3.47-13.225-7.101-21.199-10.945
			c-22.141-10.692-43.06-20.788-38.046-33.324c0.463-1.164,0.24-1.577,0.156-1.735c-1.634-3.015-12.558-5.2-19.784-6.646
			c-6.663-1.332-13.551-2.708-18.712-4.969c-8.938-3.914-10.012-9.556-9.267-13.694c-1.609-4.533-23.223-15.044-34.888-20.716
			c-24.714-12.015-36.508-18.132-34.728-25.858c1.319-5.723,8.962-7.85,28.211-7.85c9.447,0,21.942,0.564,37.145,1.677
			c4.146,0.303,8.307,0.458,12.36,0.458c42.609-0.002,80.076-16.709,111.358-49.657c41.575-43.79,51.146-69.286,60.399-93.944
			c0.517-1.368,1.027-2.734,1.545-4.101c0.79-2.088,3.313-5.593,11.302-5.593c4.506,0,10.507,1.179,13.738,3.81
			c3.234,2.632,6.188,4.653,9.046,6.609c21.414,14.632,31.187,21.311,52.396,187.275c0.629,4.918,1.561,10.674,2.454,16.243
			c3.322,20.595,4.336,28.722,1.744,32.34C1062.282,530.11,980.375,542.047,946.904,542.047z M939.138,533.261
			c1.654,0.175,4.129,0.326,7.764,0.326c35.624,0,111.219-12.785,133.689-43.581c0.737-3.205-1.507-17.102-2.998-26.361
			c-0.91-5.635-1.853-11.458-2.494-16.518c-20.731-162.192-30.103-168.598-48.776-181.362c-2.866-1.957-6.113-4.175-9.619-7.032
			c-0.979-0.796-4.646-1.909-8.395-1.909c-1.978,0-3.099,0.324-3.535,0.523c-0.463,1.227-0.926,2.456-1.388,3.684
			c-9.551,25.447-19.431,51.76-62.186,96.795c-32.943,34.699-72.475,52.293-117.496,52.293c-4.26,0-8.626-0.162-12.979-0.481
			c-14.998-1.097-27.283-1.653-36.525-1.653c-11.625,0-16.745,0.9-18.935,1.559c4.277,3.982,19.02,11.154,29.151,16.079
			c26.469,12.872,41.355,20.598,39.533,29.718c-0.158,0.796-0.488,2.446,4.317,4.552c4.322,1.891,10.757,3.179,16.973,4.422
			c11.83,2.363,22.044,4.408,25.567,10.913c1.005,1.852,1.864,4.901,0.26,8.908c-0.521,1.316,1.259,4.3,7.858,8.723
			c6.771,4.548,16.555,9.27,26.02,13.836c20.086,9.698,32.481,16.038,34.081,23.885C939.183,531.338,939.26,532.253,939.138,533.261
			z"/>
		<g>
			<path fill="#F2F2F2" d="M959.148,517.39c0,0,59.311-70.987,75.852-130.332c16.859-60.484-8.984-109.2-1.953-93.594
				c24.693,54.806,16.519,82.298,3.585,112.813C1023.697,436.79,979.054,501.857,959.148,517.39z"/>
		</g>
		<g>
			<path fill="#F2F2F2" d="M830.221,448.225c0,0,92.136-8.256,145.794-38.522c54.688-30.847,59.389-102.391,58.267-85.308
				c-3.578,54.461-39.979,87.618-70.702,100.05C932.854,436.876,855.281,451.317,830.221,448.225z"/>
		</g>
		<path fill="#FFFFFF" d="M935.107,479.752"/>
		<path fill="#294A8F" d="M768.331,666.18c0-1.775,1.426-3.195,3.198-3.195h2.482c1.686,0,3.202,1.42,3.202,3.195v1.155
			c0,4.261,0.794,6.304,2.042,7.37c0.977,0.977,2.481,1.152,3.724,1.152c3.733,0,5.776-1.597,5.776-6.303
			c0-4.171-4.086-7.456-8.437-10.832v0.088c-5.86-4.615-11.986-9.408-11.986-18.198c0-10.033,5.237-15.806,14.647-15.806
			c9.589,0,14.653,6.126,14.653,17.402v1.244c0,1.774-1.423,3.197-3.197,3.197h-2.483c-1.779,0-3.197-1.423-3.197-3.197v-1.244
			c0-5.857-1.868-8.523-5.776-8.523c-3.724,0-5.765,2.042-5.765,6.658c0,4.528,4.344,7.992,8.697,11.366h-0.086
			c5.858,4.526,11.807,9.056,11.807,17.669c0,9.944-5.237,15.267-14.653,15.267c-9.764,0-14.647-5.68-14.647-17.311V666.18z
			 M820.8,628.004c0-1.774,1.421-3.197,3.109-3.197h2.486c1.774,0,3.198,1.423,3.198,3.197V668.4c0,4.706,1.42,7.457,5.763,7.457
			c4.531,0,5.778-3.195,5.778-7.457v-40.396c0-1.774,1.42-3.197,3.105-3.197h2.486c1.775,0,3.193,1.423,3.193,3.197V668.4
			c0,9.942-4.258,16.245-14.563,16.245c-10.647,0-14.556-6.835-14.556-16.245V628.004z M884.367,659.168v22.373
			c0,1.776-1.418,3.195-3.104,3.195h-2.487c-1.778,0-3.197-1.419-3.197-3.195v-53.447c0-1.775,1.419-3.197,3.197-3.197h9.589
			c10.831,0,15.623,5.683,15.623,17.138c0,11.451-4.792,17.134-15.623,17.134H884.367z M884.367,633.686v16.692h3.998
			c4.79,0,6.746-2.575,6.746-8.344c0-5.952-1.956-8.349-6.746-8.349H884.367z M950.152,624.896c1.778,0,3.197,1.422,3.197,3.197
			v2.396c0,1.776-1.419,3.196-3.197,3.196h-13.578v16.692h11.185c1.776,0,3.197,1.42,3.197,3.196v2.397
			c0,1.774-1.421,3.196-3.197,3.196h-11.185v16.778h13.578c1.778,0,3.197,1.421,3.197,3.197v2.397c0,1.776-1.419,3.195-3.197,3.195
			h-19.173c-1.776,0-3.196-1.419-3.196-3.195v-53.447c0-1.775,1.42-3.197,3.196-3.197H950.152z M1005.558,681.452
			c0,1.773-1.425,3.193-3.197,3.193h-2.487c-1.775,0-3.196-1.42-3.196-3.193v-14.828c0-4.437-2.486-6.924-6.837-6.924h-3.996v21.752
			c0,1.773-1.422,3.193-3.105,3.193h-2.486c-1.773,0-3.197-1.42-3.197-3.193v-53.448c0-1.774,1.424-3.197,3.197-3.197h11.186
			c10.923,0,14.739,5.506,14.739,17.402c0,5.506-0.977,9.944-3.73,12.697c-0.264,0.266-0.443,0.443-0.71,0.711
			c2.574,2.751,3.821,6.391,3.821,11.007V681.452z M985.844,650.732h3.996c4.971,0,7.546-2.486,7.546-8.523
			s-1.329-8.523-5.948-8.523h-5.594V650.732z M1033.788,684.736c-1.778,0-3.196-1.419-3.196-3.195v-53.447
			c0-1.775,1.418-3.197,3.196-3.197h8.788c10.387,0,15.002,5.683,15.002,17.138c0,8.254-3.814,12.783-3.814,12.783
			c2.311,2.842,3.814,7.37,3.814,12.785c0,11.451-4.615,17.134-15.002,17.134H1033.788z M1039.467,633.686v16.692h3.109
			c4.353,0,6.124-2.397,6.124-8.344c0-5.952-1.771-8.349-6.124-8.349H1039.467z M1039.467,659.168v16.778h3.109
			c4.353,0,6.124-2.396,6.124-8.344c0-6.039-1.771-8.435-6.124-8.435H1039.467z M1103.209,668.4h-9.053l-3.102,13.851
			c-0.361,1.333-1.782,2.485-3.113,2.485h-2.575c-2.133,0-3.548-1.774-3.107-3.818l4.262-18.819l8.079-34.716
			c0.355-1.332,1.777-2.486,3.108-2.486h1.953c1.333,0,2.84,1.154,3.105,2.486l12.253,53.447c0.447,2.041-0.977,3.906-3.108,3.906
			h-2.574c-1.332,0-2.755-1.152-3.106-2.485L1103.209,668.4z M1096.199,659.611h4.973c-0.979-4.262-0.8-6.656-2.487-14.205
			L1096.199,659.611z M1163.051,654.729c1.684,0,3.107,1.42,3.107,3.197v9.499c0,11.276-4.795,17.312-14.561,17.312
			s-14.65-6.125-14.65-17.312v-25.303c0-11.274,4.885-17.226,14.65-17.226s14.561,5.951,14.561,17.226v1.241
			c0,1.778-1.424,3.197-3.107,3.197h-2.574c-1.775,0-3.197-1.419-3.197-3.197v-1.241c0-4.173-0.886-6.305-1.95-7.283
			c-1.067-0.973-2.49-1.153-3.731-1.153c-1.242,0-2.751,0.181-3.728,1.153c-1.241,1.068-2.042,3.199-2.042,7.283
			c0,14.114,0,22.993,0,25.303c0,5.771,1.863,8.521,5.77,8.521c3.816,0,5.682-2.751,5.682-8.521v-3.819h-3.107
			c-4.973,0-5.236-8.877,0-8.877H1163.051z"/>
	</g>
	
		<line fill="#294A8F" stroke="#364A8F" stroke-width="4" stroke-miterlimit="10" x1="622.668" y1="262.471" x2="720.057" y2="316.784"/>
	
		<line fill="#294A8F" stroke="#364A8F" stroke-width="4" stroke-miterlimit="10" x1="583.964" y1="406.707" x2="695.084" y2="416.02"/>
	
		<line fill="#294A8F" stroke="#364A8F" stroke-width="4" stroke-miterlimit="10" x1="609.197" y1="548.361" x2="707.307" y2="495.362"/>
	
		<line fill="#294A8F" stroke="#364A8F" stroke-width="4" stroke-miterlimit="10" x1="1284.412" y1="262.471" x2="1187.023" y2="316.784"/>
	
		<line fill="#294A8F" stroke="#364A8F" stroke-width="4" stroke-miterlimit="10" x1="1297.883" y1="548.361" x2="1199.773" y2="495.362"/>
</g>
</svg>
